<svg width="158" height="38" viewBox="0 0 158 38" fill="none" xmlns="http://www.w3.org/2000/svg">
<path d="M12.8357 23.5951V28.8067C12.8357 31.4125 11.574 32.3521 9.56878 32.3521C7.56355 32.3521 6.30296 31.4125 6.30296 28.8067V9.10503C6.30296 6.49925 7.56468 5.50838 9.56991 5.50838C11.5751 5.50838 12.8357 6.49925 12.8357 9.10503V13.0142H18.7951V9.46982C18.7951 3.63217 15.5856 0.296814 9.39755 0.296814C3.20837 0.296814 0 3.63217 0 9.46982V28.4419C0 34.2796 3.20837 37.6159 9.39755 37.6159C15.5856 37.6159 18.7951 34.2796 18.7951 28.4419V23.5951H12.8357ZM36.6157 0.713862L43.0336 37.1989H36.6732L35.5838 30.5794H27.849L26.7597 37.1989H20.9727L27.3905 0.713862H36.6157ZM31.6308 7.17657L28.6511 25.6281H34.7243L31.7457 7.17554H31.6319L31.6308 7.17657ZM65.553 37.1989H59.1351C58.7916 36.2603 58.5617 35.6865 58.5617 32.7159V26.9828C58.5617 23.5951 57.3012 22.344 54.4364 22.344H52.2588V37.1989H45.9558V0.713862H55.4683C61.9999 0.713862 64.8072 3.47642 64.8072 9.10606V11.9721C64.8072 15.7245 63.4892 18.1223 60.6819 19.3212C63.8339 20.6235 64.8647 23.3338 64.8647 27.1395V32.7681C64.8647 34.5409 64.9233 35.8432 65.553 37.1989ZM55.2959 5.92542H52.2588V17.1324H54.7225C57.0725 17.1324 58.5043 16.1948 58.5043 13.2755V9.67886C58.5043 7.07308 57.531 5.92542 55.2959 5.92542ZM84.7627 0.713862L91.1805 37.1989H84.8201L83.7319 30.5794H75.996L74.9078 37.1989H69.1196L75.5375 0.713862H84.7627ZM79.7778 7.17657L76.7981 25.6281H82.8724L79.8927 7.17554H79.7778V7.17657ZM97.0115 0.713862H90.6511L96.8391 37.1989H106.237L112.425 0.713862H106.638L101.881 30.4739H101.767L97.0115 0.713862ZM127.538 0.713862L133.956 37.1989H127.596L126.508 30.5794H118.772L117.682 37.1989H111.895L118.313 0.713862H127.538ZM122.553 7.17657L119.574 25.6281H125.648L122.668 7.17554H122.553V7.17657ZM151.239 37.1989H157.715V0.713862H152.099V22.552H151.984L145.624 0.713862H137.717V37.1989H143.39V10.7722H143.504L151.239 37.1989Z" fill="#9C9C9C"/>
</svg>
