<svg width="170" height="40" viewBox="0 0 170 40" fill="none" xmlns="http://www.w3.org/2000/svg">
<path fill-rule="evenodd" clip-rule="evenodd" d="M25.0113 17.7198H28.0721C31.2354 17.7198 32.9444 21.0931 30.8839 23.2788L27.8874 26.4553C28.2118 28.3393 29.3057 30.0427 30.9504 31.2252C32.5967 32.4084 34.6725 32.9843 36.7645 32.8381C38.8565 32.6918 40.8112 31.8343 42.2394 30.4362C43.6664 29.0387 44.461 27.2027 44.4643 25.2954C44.464 24.9636 44.5357 24.6349 44.6752 24.3284C44.8147 24.0218 45.0194 23.7432 45.2774 23.5087C45.5355 23.2742 45.8419 23.0883 46.179 22.9616C46.5162 22.8349 46.8775 22.77 47.2423 22.7705C47.9787 22.7708 48.6849 23.0368 49.206 23.5102C49.727 23.9835 50.0203 24.6255 50.0215 25.2954C50.0213 27.9451 49.1037 30.5275 47.3989 32.6762C46.1225 34.2817 44.4495 35.592 42.5145 36.5018C40.5795 37.4116 38.4367 37.8953 36.2586 37.9141C34.0805 37.9328 31.928 37.486 29.9744 36.6097C28.0209 35.7334 26.3209 34.452 25.0113 32.8688C23.7018 34.452 22.0017 35.7334 20.0482 36.6097C18.0946 37.486 15.9421 37.9328 13.764 37.9141C11.5859 37.8953 9.44311 37.4116 7.50813 36.5018C5.57315 35.592 3.90009 34.2817 2.6237 32.6762C0.918522 30.5277 0.000535297 27.9452 9.19876e-07 25.2954C-0.000296249 24.9635 0.0714106 24.6348 0.211013 24.3281C0.350615 24.0215 0.555368 23.7429 0.813541 23.5083C1.07171 23.2738 1.37823 23.0879 1.71553 22.9613C2.05282 22.8347 2.41427 22.7699 2.77916 22.7705C3.51556 22.7708 4.22177 23.0368 4.7428 23.5102C5.26383 23.9835 5.55713 24.6255 5.55832 25.2954C5.5552 27.2058 6.34636 29.0466 7.77309 30.4485C8.83837 31.4951 10.2064 32.2474 11.7203 32.619C13.2342 32.9907 14.8326 32.9666 16.3322 32.5496C17.8317 32.1326 19.1717 31.3396 20.1983 30.2614C21.2249 29.1833 21.8966 27.8638 22.1364 26.4543L19.1376 23.2778C17.0783 21.0931 18.7861 17.7209 21.9539 17.7209L25.0113 17.7198Z" fill="#9C9C9C"/>
<path d="M37.9789 10.9878C38.7084 10.9884 39.4309 10.8582 40.1051 10.6047C40.7793 10.3512 41.392 9.97934 41.9081 9.51041C42.4243 9.04147 42.8339 8.48464 43.1134 7.87171C43.3929 7.25877 43.5369 6.60176 43.5372 5.93818C43.5369 5.27461 43.3929 4.61759 43.1134 4.00466C42.8339 3.39173 42.4243 2.83489 41.9081 2.36596C41.392 1.89703 40.7793 1.52519 40.1051 1.27169C39.4309 1.01818 38.7084 0.887983 37.9789 0.888521C37.2495 0.888117 36.5271 1.01842 35.853 1.27198C35.179 1.52554 34.5664 1.8974 34.0504 2.36632C33.5343 2.83524 33.1249 3.39203 32.8454 4.0049C32.566 4.61776 32.422 5.2747 32.4217 5.93818C32.422 6.60167 32.566 7.2586 32.8454 7.87147C33.1249 8.48433 33.5343 9.04113 34.0504 9.51004C34.5664 9.97896 35.179 10.3508 35.853 10.6044C36.5271 10.8579 37.2495 10.9882 37.9789 10.9878ZM12.0427 10.9878C12.7721 10.9882 13.4945 10.8579 14.1686 10.6044C14.8426 10.3508 15.4552 9.97896 15.9712 9.51004C16.4873 9.04113 16.8967 8.48433 17.1762 7.87147C17.4556 7.2586 17.5996 6.60167 17.5999 5.93818C17.5996 5.2747 17.4556 4.61776 17.1762 4.0049C16.8967 3.39203 16.4873 2.83524 15.9712 2.36632C15.4552 1.8974 14.8426 1.52554 14.1686 1.27198C13.4945 1.01842 12.7721 0.888117 12.0427 0.888521C11.3132 0.887983 10.5907 1.01818 9.91648 1.27169C9.24229 1.52519 8.62961 1.89703 8.11344 2.36596C7.59727 2.83489 7.18773 3.39173 6.90821 4.00466C6.62869 4.61759 6.48467 5.27461 6.48438 5.93818C6.48467 6.60176 6.62869 7.25877 6.90821 7.87171C7.18773 8.48464 7.59727 9.04147 8.11344 9.51041C8.62961 9.97934 9.24229 10.3512 9.91648 10.6047C10.5907 10.8582 11.3132 10.9884 12.0427 10.9878ZM88.5715 2.12225C89.4277 2.12225 90.1307 2.3446 90.6804 2.78932C91.2302 3.23403 91.505 3.8181 91.505 4.54153V29.4773C91.505 30.2284 91.2459 30.8258 90.7255 31.2705C90.2073 31.7152 89.519 31.9376 88.6639 31.9376C87.8077 31.9376 87.1206 31.7152 86.6001 31.2715C86.0808 30.8258 85.8205 30.2284 85.8205 29.4783V28.4352C85.148 29.5747 84.1702 30.4641 82.8859 31.1035C81.6332 31.7429 80.1969 32.0626 78.5769 32.0626C76.6506 32.0626 74.9247 31.6179 73.3971 30.7285C71.8988 29.839 70.7227 28.5879 69.8666 26.975C69.0408 25.3355 68.6285 23.4593 68.6285 21.3464C68.6285 19.2335 69.0408 17.385 69.8666 15.7998C70.7227 14.2156 71.8988 12.9921 73.3971 12.1304C74.8943 11.2686 76.6213 10.8372 78.5769 10.8372C80.1969 10.8372 81.6332 11.1436 82.887 11.7553C84.1088 12.3392 85.1133 13.2387 85.7743 14.3406V4.45751C85.7743 3.76277 86.0188 3.20636 86.5077 2.78932C87.0282 2.3446 87.7154 2.12225 88.5715 2.12225ZM80.0899 28.0182C81.9239 28.0182 83.3298 27.4484 84.3076 26.308C85.3158 25.1685 85.8205 23.5413 85.8205 21.4294C85.8205 19.3165 85.3158 17.7036 84.3076 16.5929C83.3298 15.4524 81.9396 14.8817 80.136 14.8817C78.302 14.8817 76.8804 15.4381 75.8721 16.5509C74.8639 17.6627 74.3592 19.2612 74.3592 21.3464C74.3592 23.4593 74.8639 25.0988 75.8721 26.267C76.8804 27.4351 78.2863 28.0182 80.0899 28.0182ZM107.623 32.0626C105.332 32.0626 103.314 31.6322 101.573 30.7705C99.8605 29.9087 98.5312 28.6719 97.5838 27.059C96.6364 25.4462 96.1621 23.57 96.1621 21.4294C96.1621 19.2888 96.6353 17.426 97.5838 15.8418C98.5312 14.2289 99.8605 12.9921 101.572 12.1304C103.314 11.2686 105.332 10.8372 107.623 10.8372C109.916 10.8372 111.918 11.2676 113.629 12.1304C115.345 12.9672 116.737 14.2626 117.618 15.8418C118.565 17.426 119.04 19.2888 119.04 21.4294C119.04 23.571 118.565 25.4462 117.618 27.059C116.737 28.6382 115.345 29.9336 113.629 30.7705C111.918 31.6312 109.915 32.0626 107.623 32.0626ZM107.578 28.0182C109.443 28.0182 110.863 27.4617 111.841 26.35C112.82 25.2382 113.309 23.5977 113.309 21.4294C113.309 19.2888 112.82 17.6627 111.841 16.5509C110.863 15.4104 109.457 14.8407 107.623 14.8407C105.791 14.8407 104.368 15.4104 103.361 16.5509C102.383 17.6627 101.893 19.2888 101.893 21.4294C101.893 23.5977 102.382 25.2382 103.361 26.35C104.339 27.4617 105.744 28.0182 107.578 28.0182ZM142.75 10.9212C143.606 10.9212 144.293 11.1436 144.813 11.5873C145.333 12.033 145.592 12.6304 145.592 13.3805V29.8523C145.592 33.0494 144.614 35.4676 142.659 37.1092C140.702 38.7487 137.815 39.5684 133.993 39.5684C130.662 39.5684 127.881 38.9997 125.65 37.8593C124.519 37.2475 123.954 36.5108 123.954 35.649C123.954 35.0373 124.107 34.5516 124.412 34.1898C124.748 33.8281 125.176 33.6468 125.695 33.6468C125.971 33.6468 126.307 33.7031 126.705 33.8148C127.101 33.9531 127.515 34.1068 127.942 34.2729C128.899 34.6433 129.879 34.9635 130.876 35.232C131.763 35.4543 132.771 35.566 133.902 35.566C137.906 35.566 139.908 33.7871 139.908 30.2274V27.5591C139.235 28.6996 138.257 29.588 136.974 30.2284C135.69 30.8401 134.223 31.1455 132.573 31.1455C130.616 31.1455 128.874 30.7285 127.346 29.8954C125.849 29.0326 124.672 27.8378 123.816 26.309C122.96 24.7791 122.532 23.0146 122.532 21.0124C122.532 19.0111 122.945 17.2456 123.77 15.7168C124.626 14.1593 125.818 12.9645 127.346 12.1304C128.874 11.2686 130.616 10.8372 132.573 10.8372C134.223 10.8372 135.69 11.1569 136.974 11.7963C138.224 12.3786 139.248 13.2956 139.908 14.4236V13.3395C139.908 12.6171 140.168 12.033 140.687 11.5873C141.207 11.1436 141.895 10.9212 142.75 10.9212ZM134.086 27.1011C135.92 27.1011 137.34 26.558 138.349 25.4749C139.388 24.3897 139.908 22.9029 139.908 21.0124C139.908 19.0941 139.388 17.593 138.349 16.5089C137.34 15.4247 135.92 14.8827 134.086 14.8827C132.282 14.8827 130.86 15.4247 129.822 16.5089C128.783 17.593 128.263 19.0941 128.263 21.0124C128.263 22.9029 128.783 24.3897 129.822 25.4749C130.86 26.559 132.282 27.1011 134.086 27.1011ZM159.642 32.0626C156.311 32.0626 153.622 31.4652 151.574 30.2694C150.596 29.7417 150.107 28.9906 150.107 28.0182C150.107 27.4617 150.275 27.017 150.611 26.684C150.948 26.3223 151.36 26.1409 151.849 26.1409C152.368 26.1409 153.087 26.3643 154.004 26.809C154.982 27.2261 155.868 27.5458 156.663 27.7681C157.488 27.9905 158.527 28.1012 159.78 28.1012C161.064 28.1012 162.058 27.9065 162.761 27.5171C163.494 27.1277 163.86 26.5867 163.86 25.8909C163.86 25.4195 163.708 25.0435 163.402 24.7658C163.127 24.4871 162.607 24.2371 161.844 24.0147C161.109 23.7647 159.979 23.487 158.45 23.1806C155.731 22.6806 153.774 21.9715 152.582 21.0544C151.421 20.1373 150.841 18.8718 150.841 17.26C150.841 16.0365 151.237 14.938 152.033 13.9646C152.827 12.9645 153.912 12.2 155.287 11.6713C156.693 11.1159 158.283 10.8372 160.055 10.8372C161.339 10.8372 162.577 10.9909 163.769 11.2963C164.906 11.5527 165.99 11.9749 166.978 12.5464C167.956 13.1028 168.445 13.8395 168.445 14.7577C168.445 15.3131 168.277 15.7865 167.94 16.1748C167.605 16.5365 167.191 16.7179 166.702 16.7179C166.367 16.7179 166.03 16.6615 165.694 16.5509C165.292 16.3646 164.894 16.1699 164.502 15.9668C163.616 15.5498 162.852 15.2444 162.21 15.0497C161.568 14.8273 160.773 14.7157 159.826 14.7157C158.695 14.7157 157.794 14.9247 157.121 15.3407C156.479 15.7578 156.158 16.3285 156.158 17.0509C156.158 17.7457 156.495 18.2744 157.167 18.6351C157.84 18.9968 159.139 19.3585 161.064 19.7202C163.112 20.1096 164.716 20.5533 165.878 21.0544C167.039 21.5544 167.864 22.1805 168.353 22.9306C168.873 23.6817 169.132 24.6408 169.132 25.8079C169.132 27.6985 168.261 29.214 166.52 30.3534C164.807 31.4929 162.515 32.0626 159.642 32.0626Z" fill="#9C9C9C"/>
</svg>
