<svg width="185" height="39" viewBox="0 0 185 39" fill="none" xmlns="http://www.w3.org/2000/svg">
<path d="M3.65801 31.0619C2.74326 31.0619 2.002 30.8037 1.43423 30.2873C0.897998 29.7708 0.629883 29.0966 0.629883 28.2645V3.08796C0.629883 2.25592 0.882226 1.61036 1.38691 1.1513C1.92314 0.692243 2.64863 0.462712 3.56338 0.462712H20.1707C22.0949 0.462712 23.0569 1.20869 23.0569 2.70063C23.0569 4.16388 22.0949 4.89551 20.1707 4.89551H6.63882V13.1586H19.2245C21.1486 13.1586 22.1106 13.9046 22.1106 15.3965C22.1106 16.8598 21.1486 17.5914 19.2245 17.5914H6.63882V28.2645C6.63882 29.0966 6.3707 29.7708 5.83447 30.2873C5.29824 30.8037 4.57275 31.0619 3.65801 31.0619ZM31.7369 31.0619C30.8852 31.0619 30.1755 30.8468 29.6077 30.4164C29.0715 29.9573 28.8034 29.3118 28.8034 28.4797V2.7867C28.8034 1.95466 29.0715 1.32345 29.6077 0.893081C30.1755 0.462713 30.8852 0.247528 31.7369 0.247528C32.5885 0.247528 33.2982 0.462713 33.866 0.893081C34.4338 1.32345 34.7177 1.95466 34.7177 2.7867V28.4797C34.7177 29.3118 34.4338 29.9573 33.866 30.4164C33.2982 30.8468 32.5885 31.0619 31.7369 31.0619ZM59.1274 25.0368C59.6636 25.0368 60.0895 25.2233 60.4049 25.5963C60.7519 25.9692 60.9254 26.4713 60.9254 27.1025C60.9254 27.992 60.3418 28.7379 59.1747 29.3405C58.1023 29.8856 56.8879 30.3303 55.5315 30.6746C54.1752 30.9902 52.8819 31.148 51.6517 31.148C47.9297 31.148 44.9804 30.1725 42.8039 28.2215C40.6275 26.2705 39.5392 23.6022 39.5392 20.2166C39.5392 18.0648 40.0124 16.1568 40.9587 14.4927C41.905 12.8286 43.2298 11.5375 44.9331 10.6194C46.6679 9.7013 48.6236 9.24224 50.8001 9.24224C52.8819 9.24224 54.6956 9.65826 56.2412 10.4903C57.7868 11.3224 58.9855 12.4987 59.8371 14.0193C60.6888 15.54 61.1146 17.3332 61.1146 19.3989C61.1146 20.6327 60.5153 21.2495 59.3167 21.2495H45.3589C45.5482 23.2292 46.1633 24.6925 47.2042 25.6393C48.2451 26.5574 49.7592 27.0165 51.7464 27.0165C52.7557 27.0165 53.6389 26.9017 54.396 26.6722C55.1845 26.4426 56.0677 26.127 57.0456 25.7254C57.9919 25.2663 58.6858 25.0368 59.1274 25.0368ZM50.9409 13.0295C49.3322 13.0295 48.0389 13.4885 47.0611 14.4067C46.1148 15.3248 45.547 16.6446 45.3578 18.3661H56.0508C55.9878 16.6159 55.5146 15.2961 54.6314 14.4067C53.7482 13.4885 52.518 13.0295 50.9409 13.0295ZM85.5514 26.8443C86.1192 27.3608 86.4031 27.9489 86.4031 28.6088C86.4031 29.24 86.1349 29.8139 85.5987 30.3303C85.0625 30.8181 84.4316 31.0619 83.7061 31.0619C82.9176 31.0619 82.2394 30.7607 81.6716 30.1582L75.0003 23.4444L68.3289 30.1582C67.7296 30.732 67.0515 31.0189 66.2944 31.0189C65.6005 31.0189 64.9854 30.775 64.4492 30.2873C63.9129 29.7995 63.6448 29.24 63.6448 28.6088C63.6448 27.9489 63.9287 27.3608 64.4965 26.8443L71.4044 20.0015L64.875 13.5459C64.3072 13.0295 64.0233 12.4413 64.0233 11.7814C64.0233 11.1215 64.2914 10.562 64.8277 10.103C65.3639 9.61522 65.979 9.37135 66.6729 9.37135C67.43 9.37135 68.1081 9.65826 68.7075 10.2321L75.0003 16.5155L81.2931 10.2321C81.8924 9.65826 82.5706 9.37135 83.3276 9.37135C84.0531 9.37135 84.6682 9.61522 85.1729 10.103C85.7091 10.562 85.9772 11.1215 85.9772 11.7814C85.9772 12.4413 85.6933 13.0295 85.1256 13.5459L78.5962 20.0015L85.5514 26.8443ZM111.728 15.1383C113.652 15.626 115.134 16.5155 116.175 17.8066C117.248 19.0977 117.784 20.6757 117.784 22.5406C117.784 25.1228 116.759 27.1456 114.708 28.6088C112.69 30.0721 109.898 30.8037 106.334 30.8037H94.1266C93.2118 30.8037 92.4863 30.5742 91.9501 30.1151C91.4454 29.6561 91.1931 29.0105 91.1931 28.1785V3.08796C91.1931 2.25592 91.4454 1.61036 91.9501 1.1513C92.4863 0.692243 93.2118 0.462712 94.1266 0.462712H105.859C109.329 0.462712 112.042 1.16565 113.998 2.57152C115.985 3.9487 116.978 5.88536 116.978 8.3815C116.978 9.98821 116.505 11.3797 115.559 12.5561C114.644 13.7324 113.367 14.5932 111.726 15.1383H111.728ZM97.1547 13.2447H104.867C109.062 13.2447 111.16 11.8245 111.16 8.98402C111.16 7.54945 110.639 6.48788 109.598 5.79929C108.557 5.1107 106.98 4.7664 104.867 4.7664H97.1547V13.2447ZM105.671 26.5C107.879 26.5 109.488 26.1414 110.497 25.4241C111.507 24.7068 112.011 23.5879 112.011 22.0672C112.011 20.5466 111.491 19.4133 110.45 18.6673C109.441 17.9213 107.848 17.5484 105.671 17.5484H97.1547V26.5H105.671ZM125.904 31.0619C125.052 31.0619 124.342 30.8468 123.775 30.4164C123.238 29.9573 122.97 29.3118 122.97 28.4797V2.7867C122.97 1.95466 123.238 1.32345 123.775 0.893081C124.342 0.462713 125.052 0.247528 125.904 0.247528C126.756 0.247528 127.465 0.462713 128.033 0.893081C128.601 1.32345 128.885 1.95466 128.885 2.7867V28.4797C128.885 29.3118 128.601 29.9573 128.033 30.4164C127.465 30.8468 126.756 31.0619 125.904 31.0619ZM145.535 31.148C143.169 31.148 141.087 30.7033 139.289 29.8139C137.523 28.9244 136.151 27.6477 135.173 25.9836C134.195 24.3195 133.706 22.3828 133.706 20.1736C133.706 17.9644 134.195 16.0421 135.173 14.4067C136.151 12.7426 137.523 11.4658 139.289 10.5764C141.087 9.68695 143.169 9.24224 145.535 9.24224C147.901 9.24224 149.967 9.68695 151.733 10.5764C153.503 11.4402 154.94 12.7771 155.849 14.4067C156.827 16.0421 157.316 17.9644 157.316 20.1736C157.316 22.3828 156.827 24.3195 155.849 25.9836C154.94 27.6132 153.503 28.95 151.733 29.8139C149.967 30.7033 147.901 31.148 145.535 31.148ZM145.488 26.9734C147.412 26.9734 148.878 26.3996 149.888 25.252C150.897 24.1043 151.402 22.4115 151.402 20.1736C151.402 17.9644 150.897 16.2859 149.888 15.1383C148.878 13.9619 147.427 13.3738 145.535 13.3738C143.642 13.3738 142.175 13.9619 141.135 15.1383C140.125 16.2859 139.621 17.9644 139.621 20.1736C139.621 22.4115 140.125 24.1043 141.135 25.252C142.144 26.3996 143.595 26.9734 145.488 26.9734ZM181.787 9.32831C182.67 9.32831 183.38 9.55784 183.916 10.0169C184.452 10.476 184.72 11.0928 184.72 11.8675V28.8671C184.72 32.1666 183.711 34.6627 181.692 36.3555C179.673 38.0483 176.693 38.8947 172.75 38.8947C169.311 38.8947 166.441 38.3065 164.138 37.1301C162.971 36.4989 162.388 35.7386 162.388 34.8492C162.388 34.218 162.545 33.7159 162.861 33.3429C163.208 32.9699 163.649 32.7834 164.186 32.7834C164.47 32.7834 164.817 32.8408 165.227 32.9556C165.637 33.099 166.063 33.2568 166.504 33.429C167.64 33.8593 168.649 34.1893 169.532 34.4188C170.447 34.6483 171.488 34.7631 172.655 34.7631C176.787 34.7631 178.853 32.9269 178.853 29.2544V26.5C178.159 27.6764 177.15 28.5945 175.825 29.2544C174.5 29.8856 172.986 30.2012 171.283 30.2012C169.264 30.2012 167.466 29.7708 165.889 28.9101C164.343 28.0207 163.129 26.7869 162.246 25.2089C161.363 23.6309 160.921 21.809 160.921 19.7432C160.921 17.6775 161.347 15.8556 162.199 14.2776C163.082 12.6708 164.312 11.4371 165.889 10.5764C167.466 9.68695 169.264 9.24224 171.283 9.24224C172.986 9.24224 174.5 9.57219 175.825 10.2321C177.116 10.8327 178.173 11.7791 178.853 12.9434V11.8245C178.853 11.0785 179.121 10.476 179.658 10.0169C180.194 9.55784 180.903 9.32831 181.787 9.32831ZM172.844 26.0266C174.737 26.0266 176.204 25.4671 177.244 24.3482C178.317 23.2292 178.853 21.6942 178.853 19.7432C178.853 17.7635 178.317 16.2142 177.244 15.0953C176.204 13.9763 174.737 13.4168 172.844 13.4168C170.983 13.4168 169.516 13.9763 168.444 15.0953C167.372 16.2142 166.835 17.7635 166.835 19.7432C166.835 21.6942 167.372 23.2292 168.444 24.3482C169.516 25.4671 170.983 26.0266 172.844 26.0266Z" fill="#9C9C9C"/>
</svg>
