<svg width="158" height="52" viewBox="0 0 158 52" fill="none" xmlns="http://www.w3.org/2000/svg">
<path d="M28.7185 11.8159L23.5342 40.8126H16.0856L17.9781 30.3423H9.95496L8.10069 40.8126H0.654297L5.88029 11.8159H13.2872L11.0657 24.0589H19.0889L21.3127 11.8159H28.7185ZM43.9954 40.8126L44.2433 34.4902H37.3714L35.3549 40.8126H27.4951L38.071 11.8159H51.6491L51.8147 40.8126H43.9954ZM42.309 18.8638L39.059 29.0932H44.4494L44.9012 18.8648L42.309 18.8638ZM83.7734 11.8159L78.5879 40.8126H71.1393L65.9561 24.9463L63.1578 40.8136H55.708L60.934 11.8159H68.5877L73.6909 26.637L76.3641 11.8159H83.7734ZM101.15 11.8159C104.744 11.8159 107.309 12.7023 108.844 14.474C109.97 15.8163 110.531 17.4948 110.531 19.5083C110.531 20.2338 110.463 20.9982 110.327 21.8036L108.722 30.785C108.173 33.818 106.828 36.2486 104.689 38.0746C102.548 39.9006 99.778 40.8126 96.3748 40.8126H84.4008L89.628 11.8159H101.15ZM98.5569 18.0993H95.8825L92.9614 34.5292H96.8704C98.1592 34.5292 99.1607 34.1931 99.8738 33.5229C100.615 32.8241 101.122 31.6969 101.395 30.1404L102.59 23.5353C102.693 23.0025 102.749 22.4635 102.754 21.9235C102.754 19.372 101.356 18.0993 98.5569 18.0993ZM132.585 40.8126H111.928L117.156 11.8159H137.813L136.661 18.0993H123.41L122.464 23.5363H133.41L132.258 29.8177H121.312L120.489 34.5302H133.74L132.585 40.8126ZM156.09 40.8126H137.325L142.553 11.8159H149.959L145.886 34.5302H157.243L156.09 40.8126ZM83.4219 45.9729H155.005L152.769 52.0001H81.1857L83.4219 45.9729ZM8.48371 0.765717H86.7778L84.5405 6.79293H6.24641L8.48371 0.765717Z" fill="#9C9C9C"/>
</svg>
