<svg width="236" height="43" viewBox="0 0 236 43" fill="none" xmlns="http://www.w3.org/2000/svg">
<mask id="mask0_9_15" style="mask-type:luminance" maskUnits="userSpaceOnUse" x="0" y="0" width="236" height="43">
<path d="M0.945312 0.814697H235.264V42.8269H0.945312V0.814697Z" fill="white"/>
</mask>
<g mask="url(#mask0_9_15)">
<path fill-rule="evenodd" clip-rule="evenodd" d="M11.1631 37.829C11.0134 37.8278 10.866 37.7954 10.7322 37.7343C10.5985 37.6732 10.4819 37.585 10.3914 37.4765C10.1344 37.1658 9.96079 36.8047 9.88445 36.4221C9.7623 35.9351 9.66829 35.4426 9.60281 34.9466C9.52495 34.3079 9.48509 33.6659 9.4834 33.0233C9.46021 31.6113 9.46547 30.199 9.49917 28.7872C9.51945 27.9203 9.52846 27.244 9.52846 26.7563V10.6154C9.52846 9.82022 9.53409 9.21566 9.54423 8.80066C9.55437 8.38566 9.58929 7.91636 9.64675 7.39274C9.68054 7.00336 9.75489 6.61808 9.87093 6.24202C9.98358 5.95203 10.1334 5.67536 10.3159 5.41612C10.4849 5.14458 10.7305 4.92017 11.029 4.76647C11.376 4.60866 11.7331 4.46931 12.0981 4.34634C12.5684 4.18733 13.0559 4.07398 13.5524 4.0082C14.1994 3.92228 14.8485 3.84985 15.4991 3.79096V2.30004L14.9921 1.83893H-2.94452L-3.41992 2.30004V3.5727C-0.409823 3.73563 1.27322 4.51234 1.6292 5.90182C1.83649 7.07509 1.93562 8.26167 1.92661 9.44929V34.1719C1.97641 35.4561 1.91652 36.7418 1.74749 38.0176C1.66525 38.2164 1.54471 38.3988 1.3915 38.5586C1.16211 38.8082 0.919621 39.0476 0.664891 39.2759C0.463068 39.4533 0.269871 39.6386 0.0858521 39.8313V40.7791C15.3921 40.7791 24.8662 40.8693 28.5083 41.0507L29.7869 37.1241L28.9848 36.6086C23.0705 37.286 17.1224 37.6928 11.1642 37.828L11.1631 37.829ZM39.6148 26.5103C39.5567 26.5251 39.497 26.5341 39.4368 26.537C39.1405 26.537 38.9918 26.4386 38.9918 26.2398C38.993 25.3422 39.0673 24.4456 39.2149 23.5582C39.3816 22.5909 39.6599 21.642 40.0463 20.729C40.4186 19.8033 40.9292 18.9286 41.5637 18.1294C42.2362 17.3164 43.1094 16.6587 44.113 16.2094C45.1165 15.7602 46.2221 15.5319 47.3406 15.5431C48.1477 15.5024 48.9526 15.6533 49.6762 15.9809C50.3999 16.3086 51.0174 16.8018 51.4682 17.4121C52.4045 18.6744 52.8921 20.1677 52.8651 21.6902C52.8611 21.9693 52.7637 22.2406 52.5857 22.468C52.4078 22.6954 52.1578 22.868 51.8692 22.9629C50.2429 23.559 48.5822 24.0745 46.8945 24.5071C44.5208 25.1424 42.1549 25.8017 39.7973 26.4847C39.7356 26.4871 39.6744 26.4957 39.6148 26.5103ZM57.2563 34.9589C53.6908 36.9263 50.612 37.91 48.021 37.91C46.2657 37.9447 44.5421 37.4808 43.0902 36.583C41.7394 35.7586 40.6654 34.6107 39.9866 33.2661C39.3182 31.9178 38.9788 30.4537 38.9918 28.9747C51.9413 25.3104 58.4752 23.4773 58.5935 23.4773C59.1078 23.3816 59.5673 23.1213 59.8887 22.7438C60.2101 22.3663 60.3721 21.8965 60.3453 21.4197C60.3805 20.0904 60.0379 18.7753 59.3505 17.6017C58.7229 16.5521 57.7939 15.677 56.6626 15.0697C55.5213 14.4603 54.2844 14.0129 52.9946 13.7427C51.5957 13.4546 50.165 13.3137 48.7307 13.3226C46.1577 13.2863 43.6061 13.7528 41.2483 14.6906C39.1694 15.5074 37.3326 16.7602 35.8882 18.3467C34.5265 19.8807 33.4756 21.6228 32.7846 23.4916C32.0681 25.4146 31.7065 27.4321 31.7144 29.4625C31.7144 33.6329 32.9536 36.7562 35.4275 38.8322C37.6648 40.7279 40.8236 41.6747 44.9016 41.6747C47.2398 41.6529 49.5414 41.1435 51.6293 40.1858C54.1436 39.0467 56.5521 37.724 58.8312 36.2305L58.1812 35.1771L57.2563 34.9589ZM97.2584 6.40597C96.4626 4.5152 94.8998 2.97411 92.892 2.10023C90.4048 1.14845 87.7183 0.704905 85.022 0.800924C83.0544 0.790657 81.0934 1.00897 79.1866 1.45058C77.4128 1.86138 75.7195 2.51914 74.1667 3.40056C72.6458 4.27271 71.4019 5.49139 70.5584 6.93573C69.6429 8.51556 69.1828 10.2808 69.2212 12.0663C69.2202 13.3445 69.5616 14.6036 70.216 15.7347C70.841 16.8542 71.6868 17.8597 72.7113 18.7012C73.813 19.5851 74.9839 20.3951 76.2148 21.1246C77.4502 21.8733 78.7296 22.5602 80.0472 23.1822C81.2859 23.7613 82.5043 24.3757 83.7006 25.0245C84.6919 25.5348 85.6225 26.1384 86.4775 26.8249C88.6742 28.6847 89.7737 30.4533 89.7737 32.1328C89.7697 33.0249 89.5647 33.9068 89.1714 34.724C88.778 35.5412 88.2047 36.2764 87.4869 36.8843C86.7743 37.5515 85.9194 38.0794 84.9747 38.4356C84.03 38.7919 83.0153 38.969 81.9928 38.9562C80.7971 38.9874 79.6094 38.7694 78.5206 38.3188C77.4319 37.8682 76.4709 37.197 75.7112 36.3566C74.1348 34.7146 73.274 32.6045 73.2914 30.4246L72.1345 30.0455L66.2247 36.084C67.5753 37.862 69.4065 39.2937 71.5419 40.2412C73.7132 41.2101 76.1024 41.7064 78.5208 41.6911C80.7275 41.681 82.92 41.3701 85.0254 40.7689C87.1427 40.1891 89.1617 39.346 91.0253 38.2635C92.7969 37.2345 94.3014 35.8674 95.4346 34.257C96.5452 32.7257 97.1389 30.9322 97.1424 29.0977C97.1513 28.1132 96.9603 27.1357 96.5791 26.2142C96.2265 25.3585 95.7359 24.5553 95.1236 23.8308C94.4028 23.0265 93.5688 22.3119 92.643 21.7056C91.6315 21.0117 90.5751 20.3735 89.4797 19.7945C88.1686 19.115 86.8419 18.4604 85.5008 17.8312C84.5656 17.4189 83.6444 16.9808 82.7385 16.5176C81.8818 16.0622 81.0481 15.5719 80.2399 15.0482C79.4113 14.5315 78.6541 13.926 77.9846 13.2447C77.3962 12.6089 76.9155 11.8968 76.5584 11.1318C76.1619 10.3081 75.9597 9.41802 75.9647 8.51887C75.9464 7.7835 76.0905 7.05228 76.3885 6.36848C76.6865 5.68469 77.1323 5.06223 77.6995 4.53796C78.299 3.99298 79.0164 3.56721 79.8062 3.28763C80.5961 3.00805 81.4411 2.88076 82.2879 2.91383C83.3368 2.87263 84.3827 3.04299 85.3507 3.41272C86.3186 3.78244 87.1847 4.34236 87.8868 5.05235C89.2935 6.50055 90.1796 8.30552 90.426 10.225L91.4658 10.5221L97.2584 6.40597ZM126.141 16.7912C125.61 15.946 124.841 15.2449 123.913 14.7602C122.995 14.283 122.004 13.9318 120.973 13.7181C119.867 13.4949 118.736 13.386 117.603 13.3933C115.441 13.3656 113.291 13.7007 111.261 14.3821C109.52 14.9573 107.924 15.846 106.569 16.9951C105.31 18.1047 104.266 19.3996 103.48 20.8254C102.673 22.2596 102.079 23.7851 101.713 25.3617C101.352 26.9562 101.173 28.5804 101.179 30.2084C101.172 31.5918 101.387 32.9689 101.816 34.2949C102.233 35.5788 102.881 36.791 103.731 37.8833C104.628 39.01 105.831 39.9057 107.223 40.483C108.82 41.147 110.561 41.4759 112.316 41.4441C117.88 41.4441 123.107 39.2144 127.997 34.756L127.403 33.9701L126.661 33.8082C123.038 36.3535 119.691 37.6262 116.622 37.6262C115.474 37.643 114.337 37.406 113.312 36.9355C112.381 36.5155 111.572 35.904 110.947 35.1495C110.327 34.3739 109.822 33.527 109.446 32.6308C109.056 31.7359 108.773 30.8057 108.6 29.8559C108.443 28.9604 108.364 28.0545 108.363 27.1477C108.369 25.9949 108.479 24.8452 108.689 23.7088C108.923 22.4434 109.271 21.1984 109.729 19.9851C110.146 18.7995 110.869 17.722 111.838 16.8434C112.265 16.4502 112.774 16.1387 113.335 15.9272C113.896 15.7156 114.498 15.6084 115.105 15.6118C115.916 15.5711 116.724 15.7371 117.438 16.0912C118.151 16.4452 118.742 16.9733 119.144 17.616C120.062 19.121 120.514 20.8245 120.45 22.5448L121.49 22.9239L127.104 19.8919C127.058 18.8034 126.727 17.7406 126.141 16.7912ZM137.026 24.8473C137.177 23.7836 137.441 22.7364 137.814 21.7199C138.155 20.7311 138.639 19.7894 139.253 18.9174C139.843 18.1096 140.632 17.4375 141.556 16.9541C142.553 16.4307 143.687 16.164 144.838 16.1825C146.086 16.1536 147.317 16.4494 148.386 17.0351C149.38 17.5979 150.178 18.4055 150.688 19.3642C151.225 20.355 151.614 21.4064 151.845 22.4915C152.089 23.6597 152.21 24.8483 152.202 26.039C152.202 27.1221 152.192 28.0248 152.171 28.7462C152.14 29.6152 152.071 30.4828 151.964 31.3469C151.876 32.1974 151.713 33.0386 151.474 33.8645C151.241 34.5921 150.938 35.2991 150.568 35.9774C150.228 36.6489 149.737 37.2482 149.127 37.7368C148.497 38.2046 147.784 38.5709 147.019 38.8199C146.09 39.1221 145.109 39.2689 144.123 39.2534C143.037 39.2654 141.974 38.972 141.078 38.4131C140.205 37.8808 139.479 37.1721 138.956 36.3422C138.407 35.4491 137.978 34.4992 137.678 33.5131C137.363 32.5426 137.134 31.5506 136.995 30.5466C136.88 29.6795 136.82 28.807 136.817 27.9336C136.816 26.9019 136.886 25.8711 137.026 24.8473ZM133.344 38.8476C135.501 40.6346 138.927 41.5282 143.62 41.5282C145.355 41.5384 147.085 41.357 148.773 40.9861C150.36 40.6271 151.873 40.0375 153.254 39.24C154.642 38.4435 155.856 37.4196 156.833 36.2203C157.902 34.8604 158.697 33.3382 159.179 31.725C159.778 29.7686 160.069 27.7448 160.041 25.7142C160.099 24.0792 159.765 22.4524 159.062 20.9467C158.36 19.4409 157.305 18.0922 155.972 16.9941C153.496 14.9734 149.902 13.962 145.191 13.962C140.479 13.962 136.598 15.289 133.549 17.9429C132.051 19.23 130.87 20.7903 130.082 22.5215C129.294 24.2527 128.916 26.1159 128.975 27.989C128.975 32.8275 130.429 36.4467 133.34 38.8476H133.344ZM179.822 17.4009C181.406 17.4009 182.535 17.6898 183.208 18.2678C183.836 18.9645 184.232 19.8109 184.351 20.7065C184.6 21.7619 184.754 22.8358 184.812 23.9148C184.851 24.8626 184.871 26.0861 184.871 27.5842C184.87 29.5295 184.855 31.4747 184.827 33.4198C184.817 34.0059 184.822 34.6966 184.841 35.4917C184.846 36.084 184.886 36.6763 184.96 37.2644C185.02 37.6538 185.099 38.078 185.198 38.5371C185.267 38.9224 185.407 39.2923 185.614 39.6335C185.792 39.9051 186.01 40.152 186.265 40.3662C187.156 41.1016 188.328 41.4901 189.531 41.4482C191.016 41.4482 192.719 40.7617 194.639 39.3907C196.242 38.1781 197.769 36.885 199.213 35.5173L198.53 34.5951H197.817C196.656 35.4428 195.235 35.9441 193.749 36.0307C193.435 36.0471 193.12 36.0052 192.823 35.9074C192.527 35.8097 192.256 35.6581 192.026 35.462C191.821 35.3146 191.645 35.1365 191.505 34.9353C191.342 34.5811 191.237 34.2068 191.194 33.8246C191.081 33.0482 191.031 32.2652 191.046 31.4821C191.046 30.8868 191.081 29.9246 191.149 28.5987C191.205 27.656 191.24 26.7124 191.254 25.7685V24.1433C191.273 22.3921 191.269 21.1789 191.24 20.5005C191.18 19.5751 191.066 18.6532 190.897 17.739C190.823 16.877 190.506 16.047 189.977 15.3289C189.453 14.8131 188.829 14.3908 188.135 14.084C187.192 13.6691 186.152 13.469 185.106 13.5009C181.621 13.5009 177.581 14.8012 172.989 17.4009L172.275 17.157C172.237 16.1613 171.881 15.1972 171.251 14.3821C170.667 13.6853 169.662 13.339 168.237 13.339C167.383 13.3488 166.536 13.4812 165.727 13.7315C164.786 14.0184 163.888 14.4098 163.053 14.8955C162.151 15.4109 161.369 15.8895 160.706 16.3311C160.042 16.7727 159.275 17.3097 158.404 17.9419L159.503 19.2689C159.705 19.15 159.908 19.0329 160.112 18.9174C160.458 18.7186 160.76 18.5567 161.018 18.4297C161.275 18.3036 161.582 18.155 161.938 17.9829C162.257 17.8251 162.591 17.6929 162.934 17.5874C163.197 17.5054 163.472 17.4593 163.75 17.4521C164.093 17.4449 164.433 17.5238 164.73 17.6827C165.032 17.864 165.259 18.1304 165.381 18.4409C165.53 18.7688 165.658 19.1018 165.766 19.442C165.888 19.9001 165.958 20.3673 165.975 20.8377C166.015 21.4525 166.039 21.9484 166.047 22.3265C166.056 22.7046 166.06 23.2734 166.061 24.0326V24.4938C166.061 26.2624 165.913 31.6778 165.616 40.7402L166.359 41.1193L173.041 39.3589C172.843 38.5832 172.695 36.1373 172.595 32.0221C172.497 27.9968 172.449 23.9705 172.451 19.9441C175.896 18.2473 178.351 17.3988 179.816 17.3988L179.822 17.4009ZM208.631 26.6333C208.573 26.649 208.513 26.6586 208.453 26.662C208.157 26.662 208.008 26.5626 208.007 26.3648C208.008 25.4662 208.082 24.5706 208.231 23.6832C208.398 22.7159 208.676 21.7671 209.061 20.853C209.434 19.9277 209.943 19.0527 210.576 18.2534C211.249 17.4402 212.122 16.7823 213.125 16.333C214.129 15.8837 215.235 15.6556 216.353 15.6671C217.16 15.6263 217.965 15.7771 218.689 16.1048C219.413 16.4325 220.03 16.9257 220.481 17.5361C221.417 18.7983 221.905 20.2917 221.877 21.8142C221.872 22.0931 221.775 22.3641 221.597 22.5914C221.42 22.8187 221.17 22.9915 220.882 23.0869C219.256 23.6827 217.596 24.1982 215.908 24.6311C213.534 25.2663 211.168 25.9255 208.81 26.6087C208.75 26.6117 208.69 26.6203 208.632 26.6343L208.631 26.6333ZM226.272 35.0829C222.707 37.0513 219.628 38.035 217.036 38.034C215.281 38.0684 213.558 37.605 212.105 36.708C210.755 35.8833 209.681 34.7355 209.003 33.3911C208.334 32.0422 207.994 30.5775 208.007 29.0977C220.956 25.4344 227.49 23.6023 227.61 23.6023C228.124 23.5062 228.583 23.2457 228.905 22.8681C229.226 22.4904 229.388 22.0206 229.361 21.5437C229.397 20.2144 229.054 18.8993 228.367 17.7257C227.739 16.6761 226.81 15.801 225.679 15.1937C224.537 14.5845 223.3 14.1371 222.011 13.8667C220.611 13.5785 219.18 13.4376 217.746 13.4466C215.173 13.4105 212.623 13.877 210.266 14.8146C208.187 15.6313 206.35 16.8842 204.906 18.4706C203.543 20.0044 202.492 21.7466 201.802 23.6156C201.085 25.5385 200.724 27.5561 200.733 29.5865C200.733 33.7569 201.97 36.8792 204.445 38.9562C206.682 40.8519 209.84 41.7987 213.919 41.7987C216.257 41.7768 218.559 41.2675 220.647 40.3098C223.161 39.1705 225.569 37.8481 227.848 36.3555L227.198 35.3011L226.272 35.0829Z" fill="#9C9C9C"/>
</g>
</svg>
