<svg width="226" height="51" viewBox="0 0 226 51" fill="none" xmlns="http://www.w3.org/2000/svg">
<path d="M61.3431 45.1015C57.603 45.1015 54.736 44.5195 52.7409 43.3554C50.7807 42.1586 49.8018 40.4115 49.8018 38.1152C49.8018 36.9511 50.2298 35.9961 51.0837 35.2522C51.9748 34.4765 53.1149 34.0881 54.5039 34.0881C55.3229 34.1209 55.9459 34.3136 56.374 34.6702C56.802 34.994 57.0161 35.3014 57.0161 35.5924C57.0161 35.6242 56.837 35.7379 56.481 35.9316C56.125 36.1263 55.8051 36.4173 55.5189 36.8046C55.2339 37.194 55.0908 37.7268 55.0908 38.4062C55.0908 39.9268 55.591 41.1073 56.588 41.9485C57.621 42.757 59.2061 43.1607 61.3431 43.1607C62.8042 43.1607 64.0862 42.9025 65.1913 42.385C66.2953 41.8676 67.1324 41.1882 67.7024 40.3469C68.3073 39.4739 68.6104 38.5681 68.6104 37.6295C68.6104 36.4654 68.2364 35.4633 67.4883 34.622C66.7618 33.7699 65.8532 33.0602 64.8173 32.5357C63.7471 31.9537 62.2871 31.2897 60.4351 30.5458C58.2981 29.6728 56.5711 28.8807 55.2531 28.1685C53.9286 27.4524 52.7817 26.4943 51.8847 25.3547C50.9598 24.1579 50.4968 22.6864 50.4968 20.9394C50.4968 18.1256 51.5468 16.0229 53.6489 14.6324C55.787 13.2409 58.5831 12.5461 62.0382 12.5461C64.7452 12.5461 67.0963 13.0636 69.0914 14.0985C71.1225 15.1335 72.1375 16.6541 72.1375 18.6584C72.1375 19.8235 71.6914 20.7938 70.8015 21.5706C69.9464 22.3145 68.8244 22.6864 67.4354 22.6864C66.6153 22.6537 65.9923 22.4754 65.5653 22.1526C65.1373 21.797 64.9232 21.4732 64.9232 21.1822C64.9232 21.1494 65.1553 21.0367 65.6183 20.842C66.1173 20.6483 66.5443 20.3573 66.9003 19.969C67.2923 19.5806 67.4883 19.0468 67.4883 18.3684C67.4883 17.1716 66.9724 16.233 65.9394 15.5536C64.9412 14.8742 63.6593 14.5351 62.0911 14.5351C59.9192 14.5351 58.262 15.0044 57.1231 15.942C56.018 16.8478 55.466 17.9801 55.466 19.3388C55.466 20.47 55.8039 21.4251 56.481 22.2007C57.1569 22.9447 58.244 23.6886 59.74 24.4325C61.0373 25.0529 62.3561 25.6356 63.6942 26.1796C65.9743 27.1172 67.7734 27.9749 69.0914 28.7516C70.4485 29.5311 71.5982 30.5751 72.4575 31.8082C73.3835 33.0686 73.8476 34.6384 73.8476 36.5136C73.8476 38.1316 73.2776 39.603 72.1375 40.93C71.0335 42.2231 69.5184 43.2417 67.5954 43.9856C65.7073 44.7295 63.6232 45.1015 61.3431 45.1015ZM88.3946 44.7142C85.9725 44.7142 84.0484 44.0502 82.6233 42.7242C81.1983 41.3983 80.4863 39.6512 80.4863 37.484V28.5077C80.4863 27.6675 80.4502 27.0526 80.3793 26.6643C80.3443 26.277 80.1303 25.9368 79.7371 25.6457C79.3462 25.3547 78.6872 25.2092 77.7612 25.2092C77.3331 25.2092 77.0132 25.1611 76.7991 25.0637C76.5851 24.9346 76.4792 24.659 76.4792 24.2389C76.4792 24.0442 76.5502 23.8669 76.6933 23.706C76.8352 23.5113 77.0492 23.3986 77.3342 23.3658C79.5783 23.0738 81.5024 22.6537 83.1044 22.1034C83.6034 21.9425 84.0123 21.8452 84.3334 21.8124H84.4934C85.0634 21.8124 85.3495 22.1198 85.3495 22.7346V37.4358C85.3495 38.9237 85.8655 40.0723 86.8985 40.8808C87.8999 41.6466 89.1705 42.0597 90.4787 42.0448C92.1527 42.0448 93.5766 41.6729 94.7527 40.929C95.9288 40.185 96.7129 39.4411 97.1038 38.6972V28.5087C97.1038 27.6675 97.0689 27.0537 96.9979 26.6643C96.9619 26.277 96.7478 25.9368 96.3558 25.6457C95.9637 25.3547 95.3047 25.2092 94.3787 25.2092C93.9506 25.2092 93.6307 25.1611 93.4178 25.0637C93.2037 24.9346 93.0967 24.659 93.0967 24.2389C93.0967 24.0442 93.1677 23.8669 93.3108 23.706C93.4527 23.5113 93.6667 23.3986 93.9518 23.3658C96.1958 23.0738 98.1199 22.6537 99.723 22.1034C100.221 21.9425 100.631 21.8452 100.951 21.8124H101.112C101.682 21.8124 101.967 22.1198 101.967 22.7346V39.5231C101.967 41.4321 103.374 42.3861 106.188 42.3861C106.793 42.3861 107.096 42.6935 107.096 43.3083C107.096 43.7602 106.793 44.0358 106.188 44.1321L97.5848 44.666C97.3359 44.666 97.1928 44.5851 97.1567 44.4242C97.1229 44.294 97.1038 44.0522 97.1038 43.6966V40.9782H96.9979C96.1801 41.6769 95.3424 42.3561 94.4857 43.0152C93.8447 43.4681 93.0077 43.8565 91.9736 44.1803C90.9766 44.5359 89.7836 44.7131 88.3946 44.7131V44.7142ZM110.02 44.2776C109.895 44.2771 109.772 44.2505 109.661 44.1999C109.55 44.1492 109.453 44.0759 109.377 43.9856C109.235 43.7919 109.163 43.5655 109.163 43.3073C109.199 42.8871 109.306 42.6433 109.484 42.5797C109.664 42.4824 109.983 42.4332 110.446 42.4332C111.372 42.4332 112.031 42.2877 112.424 41.9967C112.816 41.7057 113.03 41.3655 113.065 40.9782C113.137 40.5888 113.172 39.975 113.172 39.1337V28.023C113.172 27.1828 113.137 26.568 113.065 26.1786C113.03 25.7913 112.816 25.4511 112.424 25.1611C112.031 24.8701 111.372 24.7235 110.446 24.7235C110.018 24.7235 109.698 24.6754 109.486 24.578C109.271 24.4489 109.164 24.1743 109.164 23.7531C109.164 23.5595 109.235 23.3812 109.379 23.2203C109.52 23.0256 109.734 22.9129 110.02 22.8801C112.335 22.5563 114.241 22.1362 115.737 21.6187C116.343 21.4568 116.752 21.3595 116.966 21.3277H117.126C117.696 21.3277 117.981 21.6351 117.981 22.2499V25.2574H118.141C119.388 24.1251 120.653 23.2357 121.935 22.5891C123.218 21.9097 124.375 21.5706 125.408 21.5706C126.584 21.5706 127.51 21.9743 128.187 22.7828C128.899 23.5595 129.255 24.4653 129.255 25.5002C129.255 26.4061 128.953 27.2145 128.347 27.9257C127.741 28.6378 126.904 28.9934 125.836 28.9934C125.371 29.0008 124.911 28.9007 124.5 28.7024C124.144 28.5077 123.948 28.3468 123.912 28.2177C123.948 28.1532 124.126 27.9585 124.446 27.6347C124.767 27.2791 124.927 26.8754 124.927 26.4225C124.927 25.8394 124.749 25.3711 124.393 25.0156C124.072 24.659 123.627 24.4817 123.057 24.4817C122.452 24.4817 121.686 24.7563 120.76 25.3066C119.833 25.824 118.925 26.487 118.035 27.2955V39.1337C118.035 39.975 118.07 40.5888 118.141 40.9782C118.213 41.3655 118.444 41.7057 118.836 41.9967C119.228 42.2877 119.887 42.4332 120.813 42.4332H121.134C121.419 42.4332 121.632 42.4824 121.775 42.5787C121.917 42.6761 122.006 42.9189 122.042 43.3062C122.042 43.5655 121.971 43.7919 121.828 43.9856C121.686 44.1803 121.472 44.2776 121.187 44.2776C119.318 44.1853 117.448 44.1364 115.577 44.1311C113.974 44.1311 112.122 44.1813 110.02 44.2776ZM193.008 44.7142C190.586 44.7142 188.431 44.1957 186.543 43.1607C184.655 42.094 183.177 40.7025 182.108 38.9882C181.089 37.292 180.556 35.3898 180.559 33.4569C180.559 31.0315 181.182 28.9288 182.429 27.15C183.676 25.3383 185.261 23.9632 187.184 23.0256C189.108 22.0552 191.049 21.5706 193.008 21.5706C195.431 21.5706 197.586 22.1034 199.474 23.1711C201.326 24.1719 202.841 25.615 203.855 27.3437C204.91 29.011 205.463 30.9019 205.458 32.8257C205.458 35.2522 204.817 37.3712 203.535 39.1829C202.288 40.9618 200.703 42.3359 198.779 43.3062C196.856 44.2449 194.932 44.7142 193.008 44.7142ZM193.008 42.9189C195.431 42.9189 197.194 41.9803 198.298 40.1041C199.438 38.2289 200.008 35.8025 200.008 32.8268C200.008 30.0447 199.42 27.7812 198.245 26.0331C197.105 24.2552 195.359 23.3658 193.008 23.3658C190.551 23.3658 188.77 24.288 187.665 26.1314C186.561 27.9749 186.009 30.3839 186.009 33.3606C186.009 36.1416 186.579 38.439 187.719 40.2496C188.859 42.0295 190.622 42.9189 193.008 42.9189ZM218.923 44.956C217.177 44.956 215.681 44.374 214.433 43.2099C213.188 42.0448 212.563 40.3797 212.563 38.2125V23.9478L209.464 24.0452C209.361 24.046 209.258 24.0244 209.165 23.9821C209.072 23.9399 208.992 23.8783 208.93 23.8023C208.79 23.6166 208.716 23.3964 208.716 23.1711C208.716 22.8801 208.77 22.6383 208.876 22.4436C209.019 22.2171 209.215 22.088 209.464 22.0552C210.711 21.8298 211.673 21.4732 212.35 20.9885C213.062 20.47 213.58 19.9208 213.899 19.3388C214.221 18.724 214.613 17.8018 215.076 16.5721C215.254 16.152 215.646 15.942 216.251 15.942C216.5 15.942 216.75 16.0065 216.999 16.1366C217.248 16.233 217.373 16.3949 217.373 16.6213L216.999 22.1526L223.251 21.8124H223.358C223.821 21.8124 224.052 22.1198 224.052 22.7346C224.052 23.0902 223.981 23.4304 223.838 23.7531C223.732 24.0452 223.589 24.1907 223.411 24.1907L217.427 24.0452V38.7945C217.427 39.8623 217.658 40.7517 218.121 41.4628C218.62 42.175 219.421 42.5306 220.526 42.5306C221.63 42.5306 222.61 42.3523 223.464 41.9967C223.928 41.8348 224.212 41.7538 224.319 41.7538C224.569 41.7538 224.765 41.8512 224.907 42.0448C225.05 42.2067 225.192 42.4342 225.335 42.7242C225.373 42.8004 225.391 42.8835 225.388 42.9671C225.388 43.0962 225.281 43.2417 225.067 43.4036C224.034 44.0184 223.055 44.4232 222.129 44.6168C221.238 44.8422 220.169 44.956 218.923 44.956ZM132.558 43.9856C132.7 44.1803 132.914 44.2766 133.199 44.2766C135.05 44.1842 136.903 44.1357 138.756 44.1311C141.143 44.1311 143.369 44.1803 145.435 44.2766C145.553 44.279 145.669 44.2535 145.772 44.2024C145.875 44.1513 145.962 44.0766 146.024 43.9856C146.165 43.7909 146.236 43.5655 146.236 43.3062C146.202 42.9189 146.113 42.6761 145.969 42.5787C145.862 42.4824 145.65 42.4332 145.328 42.4332H145.007C143.832 42.4332 142.995 42.3523 142.496 42.1904C141.997 42.0295 141.659 41.7374 141.481 41.3173C141.303 40.8644 141.214 40.1369 141.214 39.1347V24.0431H146.879C147.003 24.0426 147.125 24.0161 147.236 23.9656C147.348 23.9151 147.444 23.8421 147.52 23.7521C147.698 23.5585 147.787 23.332 147.787 23.0728C147.751 22.6854 147.644 22.4426 147.466 22.3452C147.324 22.2161 147.091 22.1505 146.772 22.1505H141.214V19.2404C141.214 17.688 141.285 16.3293 141.427 15.1642C141.56 13.9946 141.98 12.867 142.656 11.8647C143.333 10.8626 144.384 10.3615 145.81 10.3615C145.973 10.3615 146.132 10.3697 146.285 10.3871C146.265 9.84355 146.304 9.29952 146.402 8.76299C146.329 8.76117 146.256 8.76014 146.184 8.75992C143.048 8.82447 140.608 9.90757 138.863 12.0113C137.153 14.0811 136.298 16.7822 136.298 20.1135V22.1516H133.092C132.629 22.1516 132.308 22.1997 132.13 22.2971C131.952 22.3616 131.845 22.6209 131.81 23.0728C131.81 23.332 131.881 23.5585 132.023 23.7521C132.202 23.9468 132.433 24.0442 132.718 24.0442H136.298V39.1337C136.298 40.0078 136.262 40.638 136.191 41.0263C136.156 41.3819 135.942 41.7057 135.55 41.9967C135.158 42.2877 134.499 42.4332 133.573 42.4332C133.11 42.4332 132.789 42.4824 132.611 42.5787C132.469 42.6433 132.38 42.8861 132.344 43.3062C132.344 43.5655 132.415 43.7919 132.558 43.9856Z" fill="#9C9C9C"/>
<path fill-rule="evenodd" clip-rule="evenodd" d="M161.121 10.1091C161.12 10.8176 160.966 11.519 160.667 12.1733C160.369 12.8276 159.931 13.422 159.38 13.9225C158.829 14.423 158.174 14.8198 157.454 15.0903C156.734 15.3608 155.963 15.4997 155.184 15.499C153.611 15.5001 152.102 14.9329 150.989 13.9222C149.876 12.9114 149.249 11.5399 149.247 10.1091C149.248 9.40052 149.402 8.69895 149.701 8.04449C149.999 7.39002 150.437 6.79547 150.988 6.29478C151.539 5.7941 152.194 5.39708 152.914 5.12641C153.634 4.85573 154.405 4.71669 155.184 4.71723C155.963 4.71656 156.735 4.8555 157.455 5.12613C158.175 5.39676 158.829 5.79377 159.381 6.29448C159.932 6.79519 160.369 7.3898 160.668 8.04433C160.967 8.69885 161.121 9.40048 161.121 10.1091ZM155.184 12.8041C155.574 12.8045 155.959 12.7351 156.319 12.5998C156.679 12.4646 157.007 12.2662 157.282 12.016C157.558 11.7657 157.777 11.4685 157.926 11.1413C158.075 10.8141 158.152 10.4634 158.153 10.1091C158.152 9.75479 158.076 9.40395 157.926 9.07665C157.777 8.74936 157.558 8.45203 157.283 8.20166C157.007 7.95129 156.68 7.75279 156.32 7.6175C155.96 7.48221 155.574 7.41278 155.184 7.41318C154.398 7.41291 153.643 7.69659 153.087 8.2019C152.53 8.70721 152.217 9.39282 152.216 10.1081C152.217 10.8236 152.53 11.5095 153.086 12.015C153.643 12.5205 154.398 12.8043 155.184 12.8041ZM152.582 17.8445V43.8408C152.582 44.1308 152.672 44.3573 152.85 44.5192C153.028 44.7139 153.277 44.8102 153.598 44.8102C153.918 44.8102 154.185 44.6811 154.399 44.4229C154.613 44.1964 154.809 43.8562 154.987 43.4033C155.165 42.9504 155.325 42.5948 155.468 42.3356H155.735C158.05 43.9208 160.793 44.7128 163.963 44.7128C166.101 44.7128 168.113 44.1954 170.002 43.1604C171.89 42.1255 173.386 40.7186 174.491 38.9387C175.63 37.1281 176.2 35.1392 176.2 32.972C176.2 30.772 175.702 28.8158 174.704 27.1005C173.743 25.3544 172.407 23.9957 170.697 23.0253C168.986 22.0549 167.08 21.5703 164.979 21.5703C163.696 21.5703 162.396 21.8121 161.078 22.2978C159.796 22.7507 158.638 23.4454 157.605 24.3841H157.445V17.9326C155.846 18.3103 154.163 18.2798 152.582 17.8445ZM168.72 40.3948C167.401 42.1747 165.655 43.0641 163.483 43.0641C162.343 43.0641 161.328 42.8377 160.437 42.3848C159.582 41.9318 158.887 41.398 158.353 40.7832C157.854 40.1366 157.552 39.5535 157.445 39.0371V26.2285C158.976 24.7396 160.864 23.9957 163.109 23.9957C165.638 23.9957 167.543 24.9015 168.827 26.7132C170.109 28.492 170.75 30.6429 170.75 33.1656C170.75 36.1741 170.074 38.5842 168.72 40.3948ZM14.3877 0.376651C14.7656 0.131722 15.2181 9.15527e-05 15.6821 9.15527e-05C16.1461 9.15527e-05 16.5986 0.131722 16.9765 0.376651C26.6196 6.63135 30.9906 14.129 31.2666 24.8872C31.3939 30.0239 30.8498 34.7273 29.1926 38.7901C27.4916 42.8561 24.4691 46.6116 20.0193 49.784C19.7422 49.9799 19.4183 50.1135 19.0737 50.174C18.7292 50.2345 18.3739 50.2203 18.0366 50.1324C16.6735 49.7769 16.4414 48.3095 15.6821 47.3955C14.9228 48.3095 14.693 49.7758 13.3277 50.1314C12.9905 50.2191 12.6354 50.2332 12.2911 50.1727C11.9468 50.1122 11.623 49.9787 11.3461 49.783C6.89628 46.6116 3.87266 42.8561 2.17272 38.7901C0.516715 34.7273 -0.0285277 30.0239 0.0987707 24.8872C0.373645 14.129 4.7446 6.63032 14.3877 0.376651ZM19.3738 45.1504C22.1586 42.8243 23.8371 40.2882 25.0222 37.371C26.5149 33.805 26.9452 29.8641 26.8157 24.9815C26.6016 16.5923 24.4387 11.1338 17.8901 6.06572V20.8909C20.4507 21.4893 21.5998 23.7703 21.5998 26.2808C21.5998 28.7933 20.4507 31.0743 17.8901 31.6727V43.8019C17.8901 43.8019 19.0797 44.7989 19.3738 45.1504ZM11.9522 45.1504C9.16737 42.8243 7.52826 40.2882 6.34202 37.371C4.85049 33.805 4.42016 29.8641 4.55083 24.9815C4.76487 16.6098 6.91543 11.1277 13.4369 6.06572V20.8909C10.8763 21.4893 9.72613 23.7703 9.72613 26.2808C9.72613 28.7933 10.8752 31.0743 13.4369 31.6727V43.8019C13.4369 43.8019 12.236 44.8112 11.9522 45.1504ZM15.663 23.5858C14.8765 23.5853 14.122 23.8689 13.5653 24.3742C13.0087 24.8796 12.6954 25.5654 12.6945 26.2808C12.6945 27.7707 14.0239 28.9767 15.663 28.9767C16.4494 28.9773 17.204 28.6937 17.7606 28.1883C18.3173 27.6829 18.6305 26.9972 18.6314 26.2818C18.6314 24.7929 17.3021 23.5858 15.663 23.5858Z" fill="#9C9C9C"/>
</svg>
