<svg width="167" height="37" viewBox="0 0 167 37" fill="none" xmlns="http://www.w3.org/2000/svg">
<path d="M54.9826 36.57V0.173096H44.8709L23.7281 28.2577L20.1592 24.1754C26.5399 23.2901 30.1088 18.1748 30.1088 12.7153C30.1088 7.50166 26.9725 3.1242 22.7548 1.45191C20.6459 0.615761 17.5096 0.173096 13.3459 0.173096H0.206055V36.57H9.99338V24.8148H10.1015L19.3481 36.57H29.6762L33.191 31.3072H44.7627V36.57H54.9826ZM9.99338 18.4699V8.33781H13.8867C17.7259 8.33781 20.3214 10.1085 20.3214 13.2563C20.3214 16.6009 17.8881 18.4699 13.8326 18.4699H9.99338ZM44.7627 23.9295H38.0576L44.6546 13.8465H44.7627V23.9295ZM95.9952 36.57V0.173096H86.2079L86.6405 23.1917L71.0673 0.173096H62.2533V36.57H72.0406L71.7703 14.3384L87.1272 36.57H95.9952ZM125.508 36.57V28.4053H113.071V22.1588H125.13V13.9941H113.071V8.33781H125.508V0.173096H103.284V36.57H125.508ZM166.133 36.57L152.02 18.3224L165.268 0.173096H154.561L143.26 16.5517H143.152V0.173096H132.932V36.57H143.152V20.8308H143.26L154.183 36.57H166.133Z" fill="#9C9C9C"/>
</svg>
