<svg width="221" height="34" viewBox="0 0 221 34" fill="none" xmlns="http://www.w3.org/2000/svg">
<path d="M24.6024 33.6847C23.2806 33.717 21.9711 33.446 20.7947 32.8967C19.6247 32.3513 18.6268 31.5437 17.895 30.5501C15.5911 32.475 12.6063 33.5868 9.47984 33.6847C3.86181 33.6847 0.81679 30.1351 1.84532 25.0465C2.62713 21.2204 6.12502 17.386 7.10285 14.3078C5.21027 13.2749 2.4007 12.5556 1.08378 14.6664L0.219727 14.1961C0.909165 11.8824 2.57531 10.3433 4.98271 10.3433C7.39012 10.3433 9.17004 11.6242 11.4648 10.4447H13.2954C12.3187 15.0538 9.84934 18.7406 8.53242 25.1941C7.73033 29.1494 9.22186 30.9467 11.743 30.9467C13.6055 30.7384 15.3187 29.9145 16.5567 28.6319C15.5513 26.3814 15.0444 23.9723 15.0652 21.5431C15.0652 15.9381 17.9356 10.0297 22.7504 10.0297C25.2198 10.0297 27.0504 11.5688 27.0504 15.2198C27.0504 18.8697 24.5821 24.5209 21.4335 28.0694C21.6036 28.9147 22.0981 29.6802 22.8304 30.2345C23.5626 30.7879 24.4875 31.0953 25.4462 31.1035C30.0346 31.1035 33.2441 24.9348 33.2441 19.2294C33.2441 13.5239 30.4874 13.7811 30.724 11.8547C30.7453 11.614 30.8187 11.3794 30.9399 11.1645C31.0611 10.9497 31.2278 10.7587 31.4304 10.6025C31.8404 10.2849 32.3744 10.1261 32.9151 10.1588C34.3458 10.1588 36.2271 11.7809 36.2271 18.3635C36.2271 26.7516 31.249 33.6847 24.6024 33.6847ZM23.5638 12.9245C22.1331 12.9245 20.7542 17.6534 20.5796 22.5391C20.5128 23.5839 20.5335 24.6317 20.6415 25.6736C22.799 22.4778 24.1156 18.8717 24.4886 15.1368C24.4785 13.4768 24.1394 12.9235 23.5626 12.9235L23.5638 12.9245ZM45.6517 33.4725C45.0518 33.5281 44.4457 33.4649 43.8752 33.2871C43.3068 33.1104 42.7878 32.8229 42.3544 32.4448C41.9237 32.0687 41.5898 31.6107 41.3765 31.1035C41.1637 30.5984 41.0775 30.0565 41.1242 29.5172C41.1242 27.2588 44.3968 16.0026 44.3968 14.15C44.3968 13.2749 44.1703 12.7585 43.3063 12.7585C42.3422 12.8992 41.4444 13.2931 40.7231 13.8918V12.2974C42.2209 11.0615 44.1543 10.3523 46.1756 10.2972C46.7793 10.2483 47.3875 10.3182 47.9589 10.5021C48.5289 10.6866 49.0471 10.9786 49.4786 11.3608C49.9089 11.742 50.2423 12.2031 50.4541 12.7134C50.6648 13.2216 50.7504 13.7657 50.702 14.3068C50.702 16.5652 47.4316 27.7753 47.4316 29.6187C47.4316 30.4948 47.6569 31.0112 48.5221 31.0112C49.4732 30.8674 50.3646 30.4949 51.1041 29.9322V31.4713C49.6121 32.7155 47.6753 33.4264 45.6517 33.4725ZM49.6633 0.939734C50.1117 0.927437 50.5578 1.00122 50.9712 1.15902C51.3835 1.31682 51.7542 1.5525 52.0538 1.85068C52.3546 2.14659 52.5796 2.4995 52.7124 2.884C52.8453 3.2685 52.8827 3.67501 52.8221 4.07425C52.7115 4.9267 52.2624 5.71305 51.5593 6.28553C50.8501 6.86325 49.9369 7.19078 48.9851 7.20877C48.5373 7.22167 48.0916 7.14689 47.6783 6.98949C47.2664 6.83294 46.8966 6.59696 46.5946 6.29783C46.2938 6.00191 46.0688 5.649 45.936 5.26451C45.8031 4.88001 45.7657 4.4735 45.8263 4.07425C45.9371 3.22184 46.3861 2.43552 47.0892 1.86298C47.7985 1.28571 48.7117 0.957533 49.6633 0.939734ZM62.3999 28.6422C62.1126 30.0337 62.2872 31.002 63.3777 31.002C64.3322 30.8684 65.2265 30.4946 65.9597 29.923L66.0623 31.4713C64.5647 32.7075 62.6313 33.4171 60.6098 33.4725C57.05 33.4725 55.6722 31.1588 56.1972 28.2825L59.6951 10.4447C60.8577 4.48925 60.4555 3.70537 56.8957 3.70537L57.1221 2.26773L67.8523 0.995067L62.3999 28.6422ZM92.5752 28.595C92.2868 29.9876 92.3995 31.0112 93.5519 31.0112C94.5085 30.8487 95.4002 30.4571 96.1351 29.8769V31.4713C94.6471 32.7214 92.7078 33.4332 90.6827 33.4725C89.6583 33.5401 88.6427 33.2605 87.8314 32.6876C87.0265 32.1204 86.4866 31.2978 86.3196 30.3841C85.4561 31.4073 84.3477 32.2382 83.0786 32.8137C81.803 33.393 80.4002 33.7033 78.9746 33.7215C72.1534 33.7215 69.283 28.3286 70.5999 21.8475C71.9169 15.3673 78.0576 10.0758 85.0027 10.0758C86.6446 10.0446 88.2686 10.3899 89.7251 11.08L89.8997 10.2603C91.2583 3.91748 90.6308 3.70537 87.071 3.70537L87.2456 2.26773L98.0265 0.995067L92.5741 28.5961L92.5752 28.595ZM85.1773 12.3988C81.2164 12.3988 78.5837 16.6113 77.5439 21.8013C76.4534 27.2496 77.1428 31.0205 80.8672 31.0205C83.3872 31.0205 86.2576 28.2538 87.1217 24.0321L89.2418 13.3395C88.016 12.674 86.6038 12.3472 85.1773 12.3988ZM110.702 33.7297C102.729 33.7297 100.548 28.5858 101.526 23.654L104.128 10.4447C105.332 4.48105 104.931 3.65925 101.371 3.65925L101.597 2.22162L112.358 0.995067L110.177 12.1959C111.86 10.8883 113.984 10.1435 116.196 10.0851C123.14 10.0851 126.402 15.3766 125.147 21.8567C123.892 28.3378 117.503 33.7297 110.702 33.7297ZM114.427 12.5279C113.27 12.5485 112.149 12.8974 111.222 13.526C110.301 14.1496 109.622 15.0234 109.283 16.0211L107.678 24.318C106.7 29.2498 108.655 31.2592 111.125 31.2592C114.735 31.2592 116.978 27.6646 118.181 21.7552C119.252 16.4638 118.275 12.5556 114.416 12.5556L114.427 12.5279ZM136.021 24.8436C136.021 28.7989 138.14 30.9098 142.193 30.9098C144.252 30.9098 147.245 29.6289 149.139 27.9321L149.941 29.5726C148.576 30.8668 146.942 31.9007 145.134 32.6139C143.318 33.3299 141.364 33.7123 139.385 33.739C133.367 33.739 129.292 29.7294 129.292 24.2811C129.292 16.2148 136.751 10.0943 143.923 10.0943C148.285 10.0943 150.743 12.2513 150.743 14.7679C150.692 18.6761 146.556 23.0648 136.021 24.8436ZM143.418 12.4541C140.147 12.4541 136.999 16.722 136.134 22.8342C142.729 21.3956 145.537 17.386 145.599 14.814C145.589 13.3764 144.837 12.4541 143.408 12.4541H143.418ZM174.149 33.4725C173.124 33.54 172.109 33.2604 171.297 32.6876C170.493 32.1203 169.953 31.2976 169.787 30.3841C168.955 31.4068 167.873 32.2393 166.626 32.8157C165.373 33.3957 163.99 33.7053 162.585 33.7205C155.877 33.7205 153.007 28.3286 154.354 21.8475C155.702 15.3673 161.741 10.084 168.706 10.084C170.182 10.0773 171.645 10.3411 173.006 10.8597H179.549L176.041 28.595C175.753 29.9876 175.867 31.0112 177.019 31.0112C177.975 30.8484 178.866 30.4569 179.601 29.8769V31.4713C178.113 32.7213 176.174 33.4331 174.149 33.4725ZM168.871 12.3988C165.023 12.3988 162.328 16.6113 161.298 21.8013C160.208 27.2496 160.959 31.0205 164.385 31.0205C167.019 31.0205 169.837 28.1442 170.641 24.0321L172.76 13.3395C171.602 12.674 170.249 12.3458 168.881 12.3988H168.871ZM199.622 16.1502C198.068 16.1502 197.666 15.0722 197.214 13.9379C197.06 13.3645 196.69 12.8584 196.168 12.5074C195.642 12.1535 194.998 11.9751 194.344 12.0023C193.495 11.9614 192.659 12.2073 191.997 12.6929C191.341 13.1736 190.908 13.8619 190.784 14.6203C190.61 16.0129 191.761 17.1923 193.942 18.8882L196.864 21.0451C197.95 21.7806 198.793 22.773 199.302 23.9143C199.808 25.0517 199.958 26.2915 199.735 27.4986C198.993 31.3514 195.435 33.7205 190.67 33.7205C184.93 33.7205 181.267 30.6874 181.668 28.6319C181.762 28.0919 182.066 27.597 182.528 27.2404C182.99 26.8818 183.579 26.683 184.189 26.6778C185.681 26.6778 186.247 27.7015 186.71 29.0377C187.007 29.8062 187.578 30.4641 188.335 30.9108C189.095 31.358 189.994 31.5677 190.897 31.5082C191.789 31.5467 192.665 31.2848 193.357 30.7725C194.044 30.2646 194.495 29.5403 194.621 28.7436C194.848 26.8992 193.593 25.7659 191.237 23.8569L188.367 21.5985C187.358 20.9085 186.569 19.9864 186.082 18.9271C185.598 17.8731 185.434 16.7199 185.609 15.5887C186.124 13.1181 188.696 10.0574 194.611 10.0574C199.199 10.0574 202.07 12.3711 201.813 14.2238C201.784 14.7348 201.542 15.2166 201.137 15.5712C200.732 15.9278 200.19 16.1348 199.622 16.1502ZM220.619 12.9245H215.053L212.358 26.5856C211.782 29.4158 212.245 30.6977 213.963 30.6977C214.879 30.6977 216.318 30.2366 218.376 28.3378L218.489 30.338C217.554 31.3296 216.396 32.1264 215.093 32.6743C213.783 33.2253 212.36 33.516 210.918 33.5268C207.019 33.5268 205.064 31.0574 205.99 26.4842L208.685 12.9245H204.333L204.673 10.8136H209.066L210.218 4.70136H216.638L215.434 10.8126H221L220.619 12.9245Z" fill="#9C9C9C"/>
</svg>
