<svg width="40" height="40" viewBox="0 0 40 40" fill="none" xmlns="http://www.w3.org/2000/svg">
<path d="M4 2C4 0.895432 3.10457 0 2 0C0.89543 0 0 0.895432 0 2C0 3.10457 0.89543 4 2 4C3.10457 4 4 3.10457 4 2Z" fill="#808080" fill-opacity="0.3"/>
<path d="M16 26C16 24.8954 15.1046 24 14 24C12.8954 24 12 24.8954 12 26C12 27.1046 12.8954 28 14 28C15.1046 28 16 27.1046 16 26Z" fill="#808080" fill-opacity="0.3"/>
<path d="M16 14C16 12.8954 15.1046 12 14 12C12.8954 12 12 12.8954 12 14C12 15.1046 12.8954 16 14 16C15.1046 16 16 15.1046 16 14Z" fill="#808080" fill-opacity="0.3"/>
<path d="M16 2C16 0.895432 15.1046 0 14 0C12.8954 0 12 0.895432 12 2C12 3.10457 12.8954 4 14 4C15.1046 4 16 3.10457 16 2Z" fill="#808080" fill-opacity="0.3"/>
<path d="M28 26C28 24.8954 27.1046 24 26 24C24.8954 24 24 24.8954 24 26C24 27.1046 24.8954 28 26 28C27.1046 28 28 27.1046 28 26Z" fill="#808080" fill-opacity="0.3"/>
<path d="M28 14C28 12.8954 27.1046 12 26 12C24.8954 12 24 12.8954 24 14C24 15.1046 24.8954 16 26 16C27.1046 16 28 15.1046 28 14Z" fill="#808080" fill-opacity="0.3"/>
<path d="M28 2C28 0.895432 27.1046 0 26 0C24.8954 0 24 0.895432 24 2C24 3.10457 24.8954 4 26 4C27.1046 4 28 3.10457 28 2Z" fill="#808080" fill-opacity="0.3"/>
<path d="M40 38C40 36.8954 39.1046 36 38 36C36.8954 36 36 36.8954 36 38C36 39.1046 36.8954 40 38 40C39.1046 40 40 39.1046 40 38Z" fill="#808080" fill-opacity="0.3"/>
<path d="M40 26C40 24.8954 39.1046 24 38 24C36.8954 24 36 24.8954 36 26C36 27.1046 36.8954 28 38 28C39.1046 28 40 27.1046 40 26Z" fill="#808080" fill-opacity="0.3"/>
<path d="M40 14C40 12.8954 39.1046 12 38 12C36.8954 12 36 12.8954 36 14C36 15.1046 36.8954 16 38 16C39.1046 16 40 15.1046 40 14Z" fill="#808080" fill-opacity="0.3"/>
<path d="M40 2C40 0.895432 39.1046 0 38 0C36.8954 0 36 0.895432 36 2C36 3.10457 36.8954 4 38 4C39.1046 4 40 3.10457 40 2Z" fill="#808080" fill-opacity="0.3"/>
</svg>
