<svg width="40" height="40" viewBox="0 0 40 40" fill="none" xmlns="http://www.w3.org/2000/svg">
<path d="M36 2C36 0.895432 36.8954 0 38 0C39.1046 0 40 0.895432 40 2C40 3.10457 39.1046 4 38 4C36.8954 4 36 3.10457 36 2Z" fill="#E4A30B"/>
<path d="M24 26C24 24.8954 24.8954 24 26 24C27.1046 24 28 24.8954 28 26C28 27.1046 27.1046 28 26 28C24.8954 28 24 27.1046 24 26Z" fill="#E4A30B"/>
<path d="M24 14C24 12.8954 24.8954 12 26 12C27.1046 12 28 12.8954 28 14C28 15.1046 27.1046 16 26 16C24.8954 16 24 15.1046 24 14Z" fill="#E4A30B"/>
<path d="M24 2C24 0.895432 24.8954 0 26 0C27.1046 0 28 0.895432 28 2C28 3.10457 27.1046 4 26 4C24.8954 4 24 3.10457 24 2Z" fill="#E4A30B"/>
<path d="M12 26C12 24.8954 12.8954 24 14 24C15.1046 24 16 24.8954 16 26C16 27.1046 15.1046 28 14 28C12.8954 28 12 27.1046 12 26Z" fill="#E4A30B"/>
<path d="M12 14C12 12.8954 12.8954 12 14 12C15.1046 12 16 12.8954 16 14C16 15.1046 15.1046 16 14 16C12.8954 16 12 15.1046 12 14Z" fill="#E4A30B"/>
<path d="M12 2C12 0.895432 12.8954 0 14 0C15.1046 0 16 0.895432 16 2C16 3.10457 15.1046 4 14 4C12.8954 4 12 3.10457 12 2Z" fill="#E4A30B"/>
<path d="M0 38C0 36.8954 0.895432 36 2 36C3.10457 36 4 36.8954 4 38C4 39.1046 3.10457 40 2 40C0.895432 40 0 39.1046 0 38Z" fill="#E4A30B"/>
<path d="M0 26C0 24.8954 0.895432 24 2 24C3.10457 24 4 24.8954 4 26C4 27.1046 3.10457 28 2 28C0.895432 28 0 27.1046 0 26Z" fill="#E4A30B"/>
<path d="M0 14C0 12.8954 0.895432 12 2 12C3.10457 12 4 12.8954 4 14C4 15.1046 3.10457 16 2 16C0.895432 16 0 15.1046 0 14Z" fill="#E4A30B"/>
<path d="M0 2C0 0.895432 0.895432 0 2 0C3.10457 0 4 0.895432 4 2C4 3.10457 3.10457 4 2 4C0.895432 4 0 3.10457 0 2Z" fill="#E4A30B"/>
</svg>
