<svg width="40" height="46" viewBox="0 0 40 46" fill="none" xmlns="http://www.w3.org/2000/svg">
<path d="M35.8613 2.60884C35.6862 1.51825 36.4283 0.492166 37.5189 0.317028C38.6095 0.141889 39.6356 0.884014 39.8107 1.97461C39.9859 3.06521 39.2437 4.09129 38.1531 4.26643C37.0625 4.44156 36.0365 3.69944 35.8613 2.60884Z" fill="#808080" fill-opacity="0.3"/>
<path d="M27.8185 28.2079C27.6434 27.1173 28.3855 26.0913 29.4761 25.9161C30.5667 25.741 31.5928 26.4831 31.7679 27.5737C31.9431 28.6643 31.2009 29.6904 30.1103 29.8655C29.0197 30.0407 27.9937 29.2985 27.8185 28.2079Z" fill="#808080" fill-opacity="0.3"/>
<path d="M25.9158 16.3597C25.7407 15.2691 26.4828 14.2431 27.5734 14.0679C28.664 13.8928 29.6901 14.6349 29.8652 15.7255C30.0404 16.8161 29.2982 17.8422 28.2076 18.0173C27.1171 18.1925 26.091 17.4503 25.9158 16.3597Z" fill="#808080" fill-opacity="0.3"/>
<path d="M24.0131 4.51154C23.838 3.42094 24.5801 2.39486 25.6707 2.21973C26.7613 2.04459 27.7874 2.78671 27.9625 3.87731C28.1377 4.9679 27.3955 5.99399 26.3049 6.16912C25.2144 6.34426 24.1883 5.60214 24.0131 4.51154Z" fill="#808080" fill-opacity="0.3"/>
<path d="M15.9703 30.1106C15.7952 29.02 16.5373 27.994 17.6279 27.8188C18.7185 27.6437 19.7446 28.3858 19.9197 29.4764C20.0949 30.567 19.3527 31.5931 18.2621 31.7682C17.1716 31.9434 16.1455 31.2012 15.9703 30.1106Z" fill="#808080" fill-opacity="0.3"/>
<path d="M14.0676 18.2624C13.8925 17.1718 14.6346 16.1458 15.7252 15.9706C16.8158 15.7955 17.8419 16.5376 18.017 17.6282C18.1922 18.7188 17.45 19.7449 16.3595 19.92C15.2689 20.0952 14.2428 19.353 14.0676 18.2624Z" fill="#808080" fill-opacity="0.3"/>
<path d="M12.1649 6.41424C11.9898 5.32364 12.7319 4.29756 13.8225 4.12242C14.9131 3.94728 15.9392 4.68941 16.1143 5.78001C16.2895 6.8706 15.5474 7.89668 14.4568 8.07182C13.3662 8.24696 12.3401 7.50483 12.1649 6.41424Z" fill="#808080" fill-opacity="0.3"/>
<path d="M6.02484 43.8615C5.8497 42.7709 6.59182 41.7448 7.68242 41.5697C8.77302 41.3946 9.7991 42.1367 9.97423 43.2273C10.1494 44.3179 9.40725 45.344 8.31665 45.5191C7.22606 45.6942 6.19997 44.9521 6.02484 43.8615Z" fill="#808080" fill-opacity="0.3"/>
<path d="M4.12214 32.0133C3.947 30.9227 4.68913 29.8966 5.77972 29.7215C6.87032 29.5464 7.8964 30.2885 8.07154 31.3791C8.24668 32.4697 7.50455 33.4958 6.41395 33.6709C5.32336 33.846 4.29728 33.1039 4.12214 32.0133Z" fill="#808080" fill-opacity="0.3"/>
<path d="M2.21944 20.1651C2.0443 19.0745 2.78643 18.0485 3.87702 17.8733C4.96762 17.6982 5.9937 18.4403 6.16884 19.5309C6.34398 20.6215 5.60185 21.6476 4.51126 21.8227C3.42066 21.9979 2.39458 21.2557 2.21944 20.1651Z" fill="#808080" fill-opacity="0.3"/>
<path d="M0.316743 8.31694C0.141605 7.22634 0.88373 6.20026 1.97433 6.02512C3.06492 5.84998 4.091 6.59211 4.26614 7.6827C4.44128 8.7733 3.69916 9.79938 2.60856 9.97452C1.51796 10.1497 0.491882 9.40753 0.316743 8.31694Z" fill="#808080" fill-opacity="0.3"/>
</svg>
