<svg width="14" height="10" viewBox="0 0 14 10" fill="none" xmlns="http://www.w3.org/2000/svg">
<path d="M12 1.78544C12 1.07859 11.3647 0.5 10.5887 0.5H9.17734C8.78878 0.5 8.47115 0.789296 8.47115 1.14224C8.47115 1.49614 8.78878 1.78544 9.17734 1.78544H10.5887V3.48939L8.13235 6.28592H5.64743V3.71408C5.64743 3.36017 5.32981 3.07088 4.9423 3.07088H2.82372C2.45286 3.07075 2.08561 3.13719 1.74296 3.26639C1.40031 3.39559 1.08897 3.58503 0.826737 3.82387C0.564503 4.06271 0.356515 4.34628 0.214659 4.65837C0.0728037 4.97046 -0.000138933 5.30494 1.9866e-07 5.64272V6.92816C1.9866e-07 7.28206 0.317629 7.57136 0.706194 7.57136H1.41133C1.41133 8.63886 2.35786 9.5 3.52885 9.5C4.7009 9.5 5.64637 8.63886 5.64637 7.57136H8.13129C8.5622 7.57136 8.96453 7.39103 9.2324 7.0892L11.6887 4.29267C11.8931 4.06123 11.9989 3.77772 11.9989 3.48939L12 1.78544ZM3.52991 8.21456C3.34297 8.2138 3.16394 8.14576 3.03186 8.02527C2.89977 7.90478 2.82533 7.74162 2.82478 7.57136H4.2361C4.2361 7.92526 3.91848 8.21456 3.52991 8.21456Z" fill="#9E9E9E"/>
<path d="M2.70613 1.5H4.82347C5.212 1.5 5.5296 1.77694 5.5296 2.11574C5.5296 2.45361 5.212 2.73056 4.82453 2.73056H2.70613C2.51921 2.73007 2.34008 2.66517 2.20781 2.55C2.07554 2.43483 2.00084 2.27873 2 2.11574C2 1.77694 2.3176 1.5 2.70613 1.5ZM11.8827 5.80741C10.7107 5.80741 9.76533 6.6327 9.76533 7.6537C9.76533 8.67563 10.7107 9.5 11.8827 9.5C13.0546 9.5 14 8.67563 14 7.6537C14 6.6327 13.0546 5.80741 11.8827 5.80741ZM11.8827 8.26944C11.6956 8.26896 11.5163 8.20393 11.384 8.08856C11.2517 7.97319 11.1771 7.81686 11.1765 7.6537C11.1765 7.31583 11.4941 7.03889 11.8827 7.03889C12.2712 7.03889 12.5888 7.31583 12.5888 7.6537C12.5888 7.9925 12.2712 8.26944 11.8827 8.26944Z" fill="#9E9E9E"/>
</svg>
