<svg width="15" height="15" viewBox="0 0 15 15" fill="none" xmlns="http://www.w3.org/2000/svg">
<path d="M0.833016 3.333C1.19902 3.333 1.49902 3.033 1.49902 2.667V2C1.50002 1.633 1.80002 1.333 2.16602 1.333H2.83302C3.19902 1.333 3.49902 1.033 3.49902 0.667C3.49902 0.3 3.19902 0 2.83302 0H2.16602C1.05902 0 0.166016 0.893 0.166016 2V2.667C0.166016 3.033 0.466016 3.333 0.833016 3.333ZM2.83302 13.333H2.16602C1.98945 13.3325 1.82025 13.2622 1.69531 13.1374C1.57037 13.0127 1.49981 12.8436 1.49902 12.667V12C1.49902 11.633 1.19902 11.334 0.833016 11.334C0.466016 11.334 0.166016 11.634 0.166016 12V12.667C0.166016 13.774 1.05902 14.667 2.16602 14.667H2.83302C3.19902 14.667 3.49902 14.367 3.49902 14C3.49902 13.633 3.19902 13.334 2.83302 13.334V13.333ZM12.833 0H12.167C11.8 0 11.5 0.3 11.5 0.667C11.5 1.033 11.8 1.333 12.167 1.333H12.833C13.2 1.333 13.5 1.633 13.5 2V2.667C13.5 3.033 13.8 3.333 14.167 3.333C14.533 3.333 14.833 3.033 14.833 2.667V2C14.833 0.893 13.94 0 12.833 0ZM14.167 11.333C13.8 11.333 13.5 11.633 13.5 12V12.667C13.5 13.034 13.2 13.334 12.833 13.334H12.167C11.8 13.334 11.5 13.634 11.5 14C11.5 14.367 11.8 14.667 12.167 14.667H12.833C13.94 14.667 14.833 13.774 14.833 12.667V12C14.833 11.633 14.533 11.334 14.167 11.334V11.333ZM12.165 9.247V5.42C12.165 4.94 11.912 4.5 11.499 4.267L8.16502 2.347C7.96292 2.22842 7.73284 2.1659 7.49852 2.1659C7.26419 2.1659 7.03412 2.22842 6.83202 2.347L3.49902 4.259C3.08502 4.499 2.83202 4.939 2.83202 5.419V9.246C2.83202 9.726 3.08502 10.166 3.49902 10.399L6.83202 12.319C7.03412 12.4376 7.26419 12.5001 7.49852 12.5001C7.73284 12.5001 7.96292 12.4376 8.16502 12.319L11.5 10.4C11.7032 10.2841 11.872 10.1162 11.989 9.91363C12.1061 9.71103 12.1671 9.48097 12.166 9.247H12.165ZM6.83202 10.78L4.16502 9.247V6.16L6.83202 7.713V10.78ZM7.49902 6.56L4.85902 5.02L7.49902 3.5L10.139 5.02L7.49902 6.56ZM10.832 9.247L8.16502 10.78V7.713L10.832 6.16V9.247Z" fill="#9E9E9E"/>
</svg>
