<svg width="32" height="33" viewBox="0 0 32 33" fill="none" xmlns="http://www.w3.org/2000/svg">
<path d="M32 16.7161C32 7.88007 24.836 0.716064 16 0.716064C7.164 0.716064 0 7.88007 0 16.7161C0 24.7027 5.85067 31.3214 13.5 32.5214V21.3414H9.43733V16.7147H13.5V13.1921C13.5 9.18273 15.8893 6.96673 19.544 6.96673C21.2933 6.96673 23.1253 7.28007 23.1253 7.28007V11.2174H21.1067C19.1187 11.2174 18.4987 12.4507 18.4987 13.7161V16.7161H22.936L22.2267 21.3427H18.4987V32.5227C26.1493 31.3214 32 24.7014 32 16.7161Z" fill="url(#paint0_linear_36_1778)"/>
<defs>
<linearGradient id="paint0_linear_36_1778" x1="16" y1="0.716064" x2="16" y2="32.5227" gradientUnits="userSpaceOnUse">
<stop stop-color="#FFBB00"/>
<stop offset="1" stop-color="#F2A50C"/>
</linearGradient>
</defs>
</svg>
