<svg width="32" height="32" viewBox="0 0 32 32" fill="none" xmlns="http://www.w3.org/2000/svg">
<circle cx="16" cy="16" r="16" fill="white"/>
<path d="M24.3996 12.6H23.4156L21.3756 6.51605C21.2067 6.01438 20.8999 5.58089 20.4965 5.27405C20.0931 4.96721 19.6125 4.80177 19.1196 4.80005H17.1996C16.5396 4.80005 15.9996 5.38505 15.9996 6.10005C15.9996 6.81505 16.5396 7.40005 17.1996 7.40005H19.1196L20.8716 12.6H15.0996L14.6676 11.3H14.7756C15.4356 11.3 15.9756 10.715 15.9756 10C15.9756 9.28505 15.4356 8.70005 14.7756 8.70005H11.1996C10.5396 8.70005 9.99961 9.28505 9.99961 10C9.99961 10.715 10.5396 11.3 11.1996 11.3H12.0996L14.2836 17.8H13.4796C12.9516 14.901 10.7076 12.756 7.89961 12.613C4.53961 12.431 1.59961 15.46 1.59961 19.1C1.59961 22.74 4.23961 25.6 7.59961 25.6C10.5516 25.6 12.9396 23.403 13.4796 20.4H18.5196C19.0476 23.299 21.2916 25.444 24.0996 25.587C27.4596 25.756 30.3996 22.74 30.3996 19.087C30.3996 15.46 27.7596 12.6 24.3996 12.6ZM8.79961 20.4H10.9836C10.4796 21.999 9.06361 23.104 7.35961 22.987C5.57161 22.87 4.08361 21.232 3.99961 19.282C3.91561 17.007 5.52361 15.2 7.59961 15.2C9.19561 15.2 10.5036 16.279 10.9836 17.8H8.79961C8.13961 17.8 7.59961 18.385 7.59961 19.1C7.59961 19.815 8.13961 20.4 8.79961 20.4ZM18.5196 17.8H16.8396L15.9636 15.2H19.5996C19.0716 15.954 18.6876 16.825 18.5196 17.8ZM24.2556 23C22.4076 22.922 20.8476 21.219 20.7996 19.204C20.7756 17.956 21.2676 16.864 22.0596 16.136L22.8036 18.346C23.0316 19.022 23.7156 19.373 24.3396 19.126C24.9636 18.879 25.2876 18.138 25.0596 17.462L24.3036 15.213L24.3156 15.2C24.7967 15.1823 25.2762 15.2703 25.725 15.4588C26.1739 15.6474 26.5828 15.9325 26.9271 16.297C27.2714 16.6615 27.5439 17.0978 27.7283 17.5796C27.9126 18.0613 28.0049 18.5786 27.9996 19.1C27.9996 21.336 26.3436 23.078 24.2556 23Z" fill="url(#paint0_linear_104_244)"/>
<defs>
<linearGradient id="paint0_linear_104_244" x1="15.9996" y1="4.80005" x2="15.9996" y2="25.6" gradientUnits="userSpaceOnUse">
<stop stop-color="#D17100"/>
<stop offset="1" stop-color="#FF9900"/>
</linearGradient>
</defs>
</svg>
