<svg width="32" height="33" viewBox="0 0 32 33" fill="none" xmlns="http://www.w3.org/2000/svg">
<g clip-path="url(#clip0_36_1779)">
<path d="M16 0.716064C11.6533 0.716064 11.1107 0.736064 9.404 0.812064C7.7 0.892064 6.54 1.16006 5.52 1.55606C4.468 1.96406 3.57467 2.51206 2.68533 3.40139C1.796 4.29073 1.24667 5.18273 0.84 6.23606C0.444 7.25606 0.174667 8.41606 0.096 10.1201C0.016 11.8268 0 12.3694 0 16.7161C0 21.0628 0.02 21.6054 0.096 23.3121C0.176 25.0148 0.444 26.1761 0.84 27.1961C1.248 28.2468 1.796 29.1414 2.68533 30.0308C3.57467 30.9188 4.46667 31.4694 5.52 31.8761C6.54133 32.2708 7.70133 32.5414 9.404 32.6201C11.1107 32.7001 11.6533 32.7161 16 32.7161C20.3467 32.7161 20.8893 32.6961 22.596 32.6201C24.2987 32.5401 25.46 32.2708 26.48 31.8761C27.5307 31.4681 28.4253 30.9188 29.3147 30.0308C30.2027 29.1414 30.7533 28.2508 31.16 27.1961C31.5547 26.1761 31.8253 25.0148 31.904 23.3121C31.984 21.6054 32 21.0628 32 16.7161C32 12.3694 31.98 11.8268 31.904 10.1201C31.824 8.41739 31.5547 7.25473 31.16 6.23606C30.752 5.18406 30.2027 4.29073 29.3147 3.40139C28.4253 2.51206 27.5347 1.96273 26.48 1.55606C25.46 1.16006 24.2987 0.890731 22.596 0.812064C20.8893 0.732064 20.3467 0.716064 16 0.716064ZM16 3.59606C20.2707 3.59606 20.78 3.61739 22.4667 3.69073C24.0267 3.76406 24.8733 4.02273 25.436 4.24406C26.1853 4.53339 26.716 4.88006 27.2787 5.43873C27.8373 5.99873 28.184 6.53073 28.4733 7.28006C28.692 7.84273 28.9533 8.68939 29.024 10.2494C29.1 11.9374 29.1173 12.4441 29.1173 16.7161C29.1173 20.9881 29.0973 21.4961 29.0187 23.1828C28.9373 24.7428 28.6773 25.5894 28.4573 26.1521C28.1587 26.9014 27.8187 27.4321 27.2587 27.9948C26.7 28.5534 26.16 28.9001 25.4187 29.1894C24.8587 29.4081 23.9987 29.6694 22.4387 29.7401C20.74 29.8161 20.24 29.8334 15.96 29.8334C11.6787 29.8334 11.1787 29.8134 9.48133 29.7348C7.92 29.6534 7.06 29.3934 6.5 29.1734C5.74133 28.8748 5.22 28.5348 4.66133 27.9748C4.1 27.4161 3.74133 26.8761 3.46133 26.1348C3.24133 25.5748 2.98267 24.7148 2.90133 23.1548C2.84133 21.4748 2.82 20.9561 2.82 16.6961C2.82 12.4348 2.84133 11.9148 2.90133 10.2147C2.98267 8.65473 3.24133 7.79606 3.46133 7.23606C3.74133 6.47606 4.1 5.95606 4.66133 5.39473C5.22 4.83606 5.74133 4.47606 6.5 4.19739C7.06 3.97606 7.90133 3.71606 9.46133 3.63606C11.1613 3.57606 11.6613 3.55606 15.94 3.55606L16 3.59606ZM16 8.50006C11.46 8.50006 7.784 12.1801 7.784 16.7161C7.784 21.2561 11.464 24.9321 16 24.9321C20.54 24.9321 24.216 21.2521 24.216 16.7161C24.216 12.1761 20.536 8.50006 16 8.50006ZM16 22.0494C13.0533 22.0494 10.6667 19.6628 10.6667 16.7161C10.6667 13.7694 13.0533 11.3828 16 11.3828C18.9467 11.3828 21.3333 13.7694 21.3333 16.7161C21.3333 19.6628 18.9467 22.0494 16 22.0494ZM26.4613 8.17606C26.4613 9.23606 25.6 10.0961 24.5413 10.0961C23.4813 10.0961 22.6213 9.23473 22.6213 8.17606C22.6213 7.11739 23.4827 6.25739 24.5413 6.25739C25.5987 6.25606 26.4613 7.11739 26.4613 8.17606Z" fill="url(#paint0_linear_36_1779)"/>
</g>
<defs>
<linearGradient id="paint0_linear_36_1779" x1="16" y1="0.716064" x2="16" y2="32.7161" gradientUnits="userSpaceOnUse">
<stop stop-color="#FFBB00"/>
<stop offset="1" stop-color="#F2A50C"/>
</linearGradient>
<clipPath id="clip0_36_1779">
<rect width="32" height="32" fill="white" transform="translate(0 0.716064)"/>
</clipPath>
</defs>
</svg>
