<svg width="36" height="32" viewBox="0 0 36 32" fill="none" xmlns="http://www.w3.org/2000/svg">
<g clip-path="url(#clip0_15_136)">
<path d="M18 0C13.11 0 12.4995 0.02 10.5795 0.096C8.6625 0.176 7.3575 0.444 6.21 0.84C5.0265 1.248 4.0215 1.796 3.021 2.68533C2.0205 3.57467 1.4025 4.46667 0.945 5.52C0.4995 6.54 0.1965 7.7 0.108 9.404C0.018 11.1107 0 11.6533 0 16C0 20.3467 0.0225 20.8893 0.108 22.596C0.198 24.2987 0.4995 25.46 0.945 26.48C1.404 27.5307 2.0205 28.4253 3.021 29.3147C4.0215 30.2027 5.025 30.7533 6.21 31.16C7.359 31.5547 8.664 31.8253 10.5795 31.904C12.4995 31.984 13.11 32 18 32C22.89 32 23.5005 31.98 25.4205 31.904C27.336 31.824 28.6425 31.5547 29.79 31.16C30.972 30.752 31.9785 30.2027 32.979 29.3147C33.978 28.4253 34.5975 27.5347 35.055 26.48C35.499 25.46 35.8035 24.2987 35.892 22.596C35.982 20.8893 36 20.3467 36 16C36 11.6533 35.9775 11.1107 35.892 9.404C35.802 7.70133 35.499 6.53867 35.055 5.52C34.596 4.468 33.978 3.57467 32.979 2.68533C31.9785 1.796 30.9765 1.24667 29.79 0.84C28.6425 0.444 27.336 0.174667 25.4205 0.096C23.5005 0.016 22.89 0 18 0ZM18 2.88C22.8045 2.88 23.3775 2.90133 25.275 2.97467C27.03 3.048 27.9825 3.30667 28.6155 3.528C29.4585 3.81733 30.0555 4.164 30.6885 4.72267C31.317 5.28267 31.707 5.81467 32.0325 6.564C32.2785 7.12667 32.5725 7.97333 32.652 9.53333C32.7375 11.2213 32.757 11.728 32.757 16C32.757 20.272 32.7345 20.78 32.646 22.4667C32.5545 24.0267 32.262 24.8733 32.0145 25.436C31.6785 26.1853 31.296 26.716 30.666 27.2787C30.0375 27.8373 29.43 28.184 28.596 28.4733C27.966 28.692 26.9985 28.9533 25.2435 29.024C23.3325 29.1 22.77 29.1173 17.955 29.1173C13.1385 29.1173 12.576 29.0973 10.6665 29.0187C8.91 28.9373 7.9425 28.6773 7.3125 28.4573C6.459 28.1587 5.8725 27.8187 5.244 27.2587C4.6125 26.7 4.209 26.16 3.894 25.4187C3.6465 24.8587 3.3555 23.9987 3.264 22.4387C3.1965 20.7587 3.1725 20.24 3.1725 15.98C3.1725 11.7187 3.1965 11.1987 3.264 9.49867C3.3555 7.93867 3.6465 7.08 3.894 6.52C4.209 5.76 4.6125 5.24 5.244 4.67867C5.8725 4.12 6.459 3.76 7.3125 3.48133C7.9425 3.26 8.889 3 10.644 2.92C12.5565 2.86 13.119 2.84 17.9325 2.84L18 2.88ZM18 7.784C12.8925 7.784 8.757 11.464 8.757 16C8.757 20.54 12.897 24.216 18 24.216C23.1075 24.216 27.243 20.536 27.243 16C27.243 11.46 23.103 7.784 18 7.784ZM18 21.3333C14.685 21.3333 12 18.9467 12 16C12 13.0533 14.685 10.6667 18 10.6667C21.315 10.6667 24 13.0533 24 16C24 18.9467 21.315 21.3333 18 21.3333ZM29.769 7.46C29.769 8.52 28.8 9.38 27.609 9.38C26.4165 9.38 25.449 8.51867 25.449 7.46C25.449 6.40133 26.418 5.54133 27.609 5.54133C28.7985 5.54 29.769 6.40133 29.769 7.46Z" fill="white"/>
</g>
<defs>
<clipPath id="clip0_15_136">
<rect width="36" height="32" fill="white"/>
</clipPath>
</defs>
</svg>
