<svg width="14" height="18" viewBox="0 0 14 18" fill="none" xmlns="http://www.w3.org/2000/svg">
<path d="M6.667 0.716064C3.167 0.716064 0 3.39906 0 7.54906C0 10.1991 2.042 13.3161 6.117 16.9071C6.27099 17.0399 6.46761 17.113 6.671 17.113C6.87439 17.113 7.07101 17.0399 7.225 16.9071C11.292 13.3161 13.334 10.1991 13.334 7.54906C13.334 3.39906 10.167 0.716064 6.667 0.716064ZM6.667 9.04906C5.75 9.04906 5 8.29906 5 7.38206C5 6.46507 5.75 5.71506 6.667 5.71506C7.584 5.71506 8.334 6.46507 8.334 7.38206C8.334 8.29906 7.584 9.04906 6.667 9.04906Z" fill="url(#paint0_linear_36_1784)"/>
<defs>
<linearGradient id="paint0_linear_36_1784" x1="6.667" y1="0.716064" x2="6.667" y2="17.113" gradientUnits="userSpaceOnUse">
<stop stop-color="#FFBB00"/>
<stop offset="1" stop-color="#F2A50C"/>
</linearGradient>
</defs>
</svg>
