<svg width="30" height="24" viewBox="0 0 30 24" fill="none" xmlns="http://www.w3.org/2000/svg">
<path d="M25.3977 8.75533C25.2542 8.96737 25.1692 9.21353 25.1514 9.46893C25.1335 9.72432 25.1833 9.97992 25.2959 10.2099C25.6566 11.0521 25.9112 11.9364 26.0522 12.8426C26.4267 15.1846 26.0765 17.5851 25.0486 19.7226C24.9238 19.9571 24.7371 20.1528 24.5089 20.2887C24.2807 20.4246 24.0197 20.4955 23.7541 20.4935H5.35406C5.08697 20.4941 4.82488 20.4211 4.59653 20.2825C4.36817 20.144 4.18238 19.9452 4.05952 19.7081C3.12843 17.8192 2.72736 15.7132 2.89906 13.6143C3.07076 11.5155 3.80879 9.50262 5.03447 7.79024C6.26016 6.07786 7.92756 4.73018 9.85891 3.89088C11.7903 3.05159 13.9132 2.75212 16.0013 3.02442C17.0579 3.14861 18.0913 3.42289 19.0704 3.83897C19.3004 3.95151 19.556 4.00136 19.8114 3.98348C20.0668 3.9656 20.3129 3.88063 20.525 3.73715C20.7459 3.59161 20.9229 3.38858 21.037 3.14991C21.1511 2.91125 21.198 2.64598 21.1726 2.38266C21.1471 2.11934 21.0504 1.86794 20.8927 1.65552C20.735 1.44311 20.5224 1.27771 20.2777 1.17715C17.4678 -0.0277123 14.3497 -0.316541 11.3663 0.351693C8.38289 1.01993 5.68591 2.61124 3.65843 4.8996C1.63096 7.18795 0.3761 10.057 0.0720988 13.0992C-0.231902 16.1413 0.430416 19.2019 1.96497 21.8462C2.21881 22.2859 2.58328 22.6515 3.02218 22.9067C3.46108 23.1619 3.95912 23.2977 4.46679 23.3008H24.6122C25.1249 23.3028 25.6289 23.1694 26.0733 22.9139C26.5178 22.6585 26.8869 22.2902 27.1432 21.8462C28.2666 19.8992 28.9235 17.7184 29.0623 15.4748C29.2011 13.2312 28.8181 10.986 27.9432 8.91533C27.8323 8.67935 27.6601 8.47748 27.4446 8.33086C27.229 8.18424 26.978 8.09825 26.7178 8.08189C26.4576 8.06554 26.1978 8.11942 25.9655 8.23789C25.7333 8.35636 25.5372 8.53508 25.3977 8.75533Z" fill="url(#paint0_linear_29_1464)"/>
<path d="M16.8539 8.2608C16.3081 8.80667 16.0014 9.54702 16.0014 10.319C16.0014 10.7012 16.0767 11.0797 16.223 11.4329C16.3692 11.786 16.5836 12.1069 16.8539 12.3772C17.1242 12.6475 17.4451 12.8619 17.7982 13.0081C18.1514 13.1544 18.5299 13.2297 18.9121 13.2297C19.6841 13.2297 20.4244 12.923 20.9703 12.3772L29.203 0.0280762L16.8539 8.2608Z" fill="url(#paint1_linear_29_1464)"/>
<defs>
<linearGradient id="paint0_linear_29_1464" x1="14.6015" y1="0" x2="14.6015" y2="23.3008" gradientUnits="userSpaceOnUse">
<stop stop-color="#FFBB00"/>
<stop offset="1" stop-color="#F2A50C"/>
</linearGradient>
<linearGradient id="paint1_linear_29_1464" x1="14.6015" y1="0" x2="14.6015" y2="23.3008" gradientUnits="userSpaceOnUse">
<stop stop-color="#FFBB00"/>
<stop offset="1" stop-color="#F2A50C"/>
</linearGradient>
</defs>
</svg>
