<svg width="40" height="46" viewBox="0 0 40 46" fill="none" xmlns="http://www.w3.org/2000/svg">
<path d="M35.8613 43.2273C35.6862 44.3179 36.4283 45.344 37.5189 45.5192C38.6095 45.6943 39.6356 44.9522 39.8107 43.8616C39.9859 42.771 39.2437 41.7449 38.1531 41.5698C37.0625 41.3946 36.0365 42.1367 35.8613 43.2273Z" fill="#808080" fill-opacity="0.3"/>
<path d="M27.8185 17.6282C27.6434 18.7188 28.3855 19.7449 29.4761 19.9201C30.5667 20.0952 31.5928 19.3531 31.7679 18.2625C31.9431 17.1719 31.2009 16.1458 30.1103 15.9707C29.0197 15.7955 27.9937 16.5377 27.8185 17.6282Z" fill="#808080" fill-opacity="0.3"/>
<path d="M25.9158 29.4764C25.7407 30.567 26.4828 31.5931 27.5734 31.7683C28.664 31.9434 29.6901 31.2013 29.8652 30.1107C30.0404 29.0201 29.2982 27.994 28.2076 27.8189C27.1171 27.6437 26.091 28.3858 25.9158 29.4764Z" fill="#808080" fill-opacity="0.3"/>
<path d="M24.0131 41.3246C23.838 42.4152 24.5801 43.4413 25.6707 43.6165C26.7613 43.7916 27.7874 43.0495 27.9625 41.9589C28.1377 40.8683 27.3955 39.8422 26.3049 39.6671C25.2144 39.4919 24.1883 40.234 24.0131 41.3246Z" fill="#808080" fill-opacity="0.3"/>
<path d="M15.9703 15.7256C15.7952 16.8161 16.5373 17.8422 17.6279 18.0174C18.7185 18.1925 19.7446 17.4504 19.9197 16.3598C20.0949 15.2692 19.3527 14.2431 18.2621 14.068C17.1716 13.8928 16.1455 14.635 15.9703 15.7256Z" fill="#808080" fill-opacity="0.3"/>
<path d="M14.0676 27.5737C13.8925 28.6643 14.6346 29.6904 15.7252 29.8656C16.8158 30.0407 17.8419 29.2986 18.017 28.208C18.1922 27.1174 17.45 26.0913 16.3595 25.9162C15.2689 25.741 14.2428 26.4832 14.0676 27.5737Z" fill="#808080" fill-opacity="0.3"/>
<path d="M12.1649 39.4219C11.9898 40.5125 12.7319 41.5386 13.8225 41.7138C14.9131 41.8889 15.9392 41.1468 16.1143 40.0562C16.2895 38.9656 15.5474 37.9395 14.4568 37.7644C13.3662 37.5892 12.3401 38.3313 12.1649 39.4219Z" fill="#808080" fill-opacity="0.3"/>
<path d="M6.02484 1.97466C5.8497 3.06526 6.59182 4.09134 7.68242 4.26647C8.77301 4.44161 9.7991 3.69949 9.97423 2.60889C10.1494 1.5183 9.40725 0.492215 8.31665 0.317076C7.22606 0.141938 6.19997 0.884063 6.02484 1.97466Z" fill="#808080" fill-opacity="0.3"/>
<path d="M4.12214 13.8229C3.947 14.9135 4.68913 15.9395 5.77972 16.1147C6.87032 16.2898 7.8964 15.5477 8.07154 14.4571C8.24668 13.3665 7.50455 12.3404 6.41395 12.1653C5.32336 11.9901 4.29728 12.7323 4.12214 13.8229Z" fill="#808080" fill-opacity="0.3"/>
<path d="M2.21944 25.6711C2.0443 26.7616 2.78643 27.7877 3.87702 27.9629C4.96762 28.138 5.9937 27.3959 6.16884 26.3053C6.34398 25.2147 5.60185 24.1886 4.51126 24.0135C3.42066 23.8383 2.39458 24.5805 2.21944 25.6711Z" fill="#808080" fill-opacity="0.3"/>
<path d="M0.316743 37.5192C0.141605 38.6098 0.883731 39.6359 1.97433 39.8111C3.06492 39.9862 4.091 39.2441 4.26614 38.1535C4.44128 37.0629 3.69915 36.0368 2.60856 35.8617C1.51796 35.6865 0.491882 36.4287 0.316743 37.5192Z" fill="#808080" fill-opacity="0.3"/>
</svg>
