<svg width="40" height="46" viewBox="0 0 40 46" fill="none" xmlns="http://www.w3.org/2000/svg">
<path d="M3.97461 43.2273C4.14975 44.3179 3.40762 45.344 2.31702 45.5192C1.22643 45.6943 0.200347 44.9522 0.025209 43.8616C-0.14993 42.771 0.592196 41.7449 1.68279 41.5698C2.77339 41.3946 3.79947 42.1367 3.97461 43.2273Z" fill="#808080" fill-opacity="0.3"/>
<path d="M12.0174 17.6282C12.1925 18.7188 11.4504 19.7449 10.3598 19.9201C9.26923 20.0952 8.24315 19.3531 8.06801 18.2625C7.89287 17.1719 8.635 16.1458 9.72559 15.9707C10.8162 15.7955 11.8423 16.5377 12.0174 17.6282Z" fill="#808080" fill-opacity="0.3"/>
<path d="M13.9201 29.4764C14.0952 30.567 13.3531 31.5931 12.2625 31.7683C11.1719 31.9434 10.1458 31.2013 9.97071 30.1107C9.79557 29.0201 10.5377 27.994 11.6283 27.8189C12.7189 27.6437 13.745 28.3858 13.9201 29.4764Z" fill="#808080" fill-opacity="0.3"/>
<path d="M15.8228 41.3246C15.9979 42.4152 15.2558 43.4413 14.1652 43.6165C13.0746 43.7916 12.0485 43.0495 11.8734 41.9589C11.6983 40.8683 12.4404 39.8422 13.531 39.6671C14.6216 39.4919 15.6477 40.234 15.8228 41.3246Z" fill="#808080" fill-opacity="0.3"/>
<path d="M23.8656 15.7256C24.0407 16.8161 23.2986 17.8422 22.208 18.0174C21.1174 18.1925 20.0913 17.4504 19.9162 16.3598C19.7411 15.2692 20.4832 14.2431 21.5738 14.068C22.6644 13.8928 23.6905 14.635 23.8656 15.7256Z" fill="#808080" fill-opacity="0.3"/>
<path d="M25.7683 27.5737C25.9434 28.6643 25.2013 29.6904 24.1107 29.8656C23.0201 30.0407 21.994 29.2986 21.8189 28.208C21.6438 27.1174 22.3859 26.0913 23.4765 25.9162C24.5671 25.741 25.5932 26.4832 25.7683 27.5737Z" fill="#808080" fill-opacity="0.3"/>
<path d="M27.671 39.4219C27.8461 40.5125 27.104 41.5386 26.0134 41.7138C24.9228 41.8889 23.8967 41.1468 23.7216 40.0562C23.5465 38.9656 24.2886 37.9395 25.3792 37.7644C26.4698 37.5892 27.4959 38.3313 27.671 39.4219Z" fill="#808080" fill-opacity="0.3"/>
<path d="M33.8111 1.97466C33.9862 3.06526 33.2441 4.09134 32.1535 4.26647C31.0629 4.44161 30.0368 3.69949 29.8617 2.60889C29.6866 1.5183 30.4287 0.492215 31.5193 0.317076C32.6099 0.141938 33.636 0.884063 33.8111 1.97466Z" fill="#808080" fill-opacity="0.3"/>
<path d="M35.7138 13.8229C35.8889 14.9135 35.1468 15.9395 34.0562 16.1147C32.9656 16.2898 31.9395 15.5477 31.7644 14.4571C31.5893 13.3665 32.3314 12.3404 33.422 12.1653C34.5126 11.9901 35.5387 12.7323 35.7138 13.8229Z" fill="#808080" fill-opacity="0.3"/>
<path d="M37.6165 25.6711C37.7916 26.7616 37.0495 27.7877 35.9589 27.9629C34.8683 28.138 33.8422 27.3959 33.6671 26.3053C33.492 25.2147 34.2341 24.1886 35.3247 24.0135C36.4153 23.8383 37.4414 24.5805 37.6165 25.6711Z" fill="#808080" fill-opacity="0.3"/>
<path d="M39.5192 37.5192C39.6943 38.6098 38.9522 39.6359 37.8616 39.8111C36.771 39.9862 35.7449 39.2441 35.5698 38.1535C35.3947 37.0629 36.1368 36.0368 37.2274 35.8617C38.318 35.6865 39.3441 36.4286 39.5192 37.5192Z" fill="#808080" fill-opacity="0.3"/>
</svg>
