<svg width="40" height="40" viewBox="0 0 40 40" fill="none" xmlns="http://www.w3.org/2000/svg">
<path d="M4 38C4 39.1046 3.10457 40 2 40C0.89543 40 0 39.1046 0 38C0 36.8954 0.89543 36 2 36C3.10457 36 4 36.8954 4 38Z" fill="#E4A30B"/>
<path d="M16 14C16 15.1046 15.1046 16 14 16C12.8954 16 12 15.1046 12 14C12 12.8954 12.8954 12 14 12C15.1046 12 16 12.8954 16 14Z" fill="#E4A30B"/>
<path d="M16 26C16 27.1046 15.1046 28 14 28C12.8954 28 12 27.1046 12 26C12 24.8954 12.8954 24 14 24C15.1046 24 16 24.8954 16 26Z" fill="#E4A30B"/>
<path d="M16 38C16 39.1046 15.1046 40 14 40C12.8954 40 12 39.1046 12 38C12 36.8954 12.8954 36 14 36C15.1046 36 16 36.8954 16 38Z" fill="#E4A30B"/>
<path d="M28 14C28 15.1046 27.1046 16 26 16C24.8954 16 24 15.1046 24 14C24 12.8954 24.8954 12 26 12C27.1046 12 28 12.8954 28 14Z" fill="#E4A30B"/>
<path d="M28 26C28 27.1046 27.1046 28 26 28C24.8954 28 24 27.1046 24 26C24 24.8954 24.8954 24 26 24C27.1046 24 28 24.8954 28 26Z" fill="#E4A30B"/>
<path d="M28 38C28 39.1046 27.1046 40 26 40C24.8954 40 24 39.1046 24 38C24 36.8954 24.8954 36 26 36C27.1046 36 28 36.8954 28 38Z" fill="#E4A30B"/>
<path d="M40 2C40 3.10457 39.1046 4 38 4C36.8954 4 36 3.10457 36 2C36 0.89543 36.8954 0 38 0C39.1046 0 40 0.89543 40 2Z" fill="#E4A30B"/>
<path d="M40 14C40 15.1046 39.1046 16 38 16C36.8954 16 36 15.1046 36 14C36 12.8954 36.8954 12 38 12C39.1046 12 40 12.8954 40 14Z" fill="#E4A30B"/>
<path d="M40 26C40 27.1046 39.1046 28 38 28C36.8954 28 36 27.1046 36 26C36 24.8954 36.8954 24 38 24C39.1046 24 40 24.8954 40 26Z" fill="#E4A30B"/>
<path d="M40 38C40 39.1046 39.1046 40 38 40C36.8954 40 36 39.1046 36 38C36 36.8954 36.8954 36 38 36C39.1046 36 40 36.8954 40 38Z" fill="#E4A30B"/>
</svg>
