<svg width="99" height="24" viewBox="0 0 99 24" fill="none" xmlns="http://www.w3.org/2000/svg">
<path d="M26.828 15.264V13.716L32.876 5.04H35.36V13.482H37.034V15.264H35.36V18H33.344V15.264H26.828ZM33.434 7.128L29.186 13.482H33.434V7.128ZM38.7343 11.268C38.7343 9.192 39.0823 7.572 39.7783 6.408C40.4863 5.232 41.6983 4.644 43.4143 4.644C45.1303 4.644 46.3363 5.232 47.0323 6.408C47.7403 7.572 48.0943 9.192 48.0943 11.268C48.0943 13.368 47.7403 15.012 47.0323 16.2C46.3363 17.376 45.1303 17.964 43.4143 17.964C41.6983 17.964 40.4863 17.376 39.7783 16.2C39.0823 15.012 38.7343 13.368 38.7343 11.268ZM46.0783 11.268C46.0783 10.296 46.0123 9.474 45.8803 8.802C45.7603 8.13 45.5083 7.584 45.1243 7.164C44.7403 6.732 44.1703 6.516 43.4143 6.516C42.6583 6.516 42.0883 6.732 41.7043 7.164C41.3203 7.584 41.0623 8.13 40.9303 8.802C40.8103 9.474 40.7503 10.296 40.7503 11.268C40.7503 12.276 40.8103 13.122 40.9303 13.806C41.0503 14.49 41.3023 15.042 41.6863 15.462C42.0823 15.882 42.6583 16.092 43.4143 16.092C44.1703 16.092 44.7403 15.882 45.1243 15.462C45.5203 15.042 45.7783 14.49 45.8983 13.806C46.0183 13.122 46.0783 12.276 46.0783 11.268ZM54.4595 13.05L59.0315 18H56.2595L52.5875 13.734V18H50.5355V4.68H52.5875V12.42L56.1875 8.082H59.0315L54.4595 13.05ZM72.5083 7.92C73.2883 7.92 73.9843 8.082 74.5963 8.406C75.2203 8.73 75.7063 9.21 76.0543 9.846C76.4143 10.482 76.5943 11.25 76.5943 12.15V18H74.5603V12.456C74.5603 11.568 74.3383 10.89 73.8943 10.422C73.4503 9.942 72.8443 9.702 72.0763 9.702C71.3083 9.702 70.6963 9.942 70.2403 10.422C69.7963 10.89 69.5743 11.568 69.5743 12.456V18H67.5403V12.456C67.5403 11.568 67.3183 10.89 66.8743 10.422C66.4303 9.942 65.8243 9.702 65.0563 9.702C64.2883 9.702 63.6763 9.942 63.2203 10.422C62.7763 10.89 62.5543 11.568 62.5543 12.456V18H60.5023V8.082H62.5543V9.216C62.8903 8.808 63.3163 8.49 63.8323 8.262C64.3483 8.034 64.9003 7.92 65.4883 7.92C66.2803 7.92 66.9883 8.088 67.6123 8.424C68.2363 8.76 68.7163 9.246 69.0523 9.882C69.3523 9.282 69.8203 8.808 70.4563 8.46C71.0923 8.1 71.7763 7.92 72.5083 7.92ZM85.8655 1.008L80.9695 21.15H78.9535L83.8315 1.008H85.8655ZM93.5816 7.92C94.3376 7.92 95.0096 8.082 95.5976 8.406C96.1976 8.73 96.6656 9.21 97.0016 9.846C97.3496 10.482 97.5236 11.25 97.5236 12.15V18H95.4896V12.456C95.4896 11.568 95.2676 10.89 94.8236 10.422C94.3796 9.942 93.7736 9.702 93.0056 9.702C92.2376 9.702 91.6256 9.942 91.1696 10.422C90.7256 10.89 90.5036 11.568 90.5036 12.456V18H88.4516V4.68H90.5036V9.234C90.8516 8.814 91.2896 8.49 91.8176 8.262C92.3576 8.034 92.9456 7.92 93.5816 7.92Z" fill="#7A7A7A"/>
<path d="M17.4609 10.0193C17.3623 10.1651 17.3039 10.3343 17.2916 10.5099C17.2793 10.6855 17.3135 10.8612 17.3909 11.0193C17.6389 11.5983 17.8139 12.2063 17.9109 12.8293C18.1683 14.4394 17.9276 16.0898 17.2209 17.5593C17.1351 17.7205 17.0068 17.8551 16.8499 17.9485C16.693 18.0419 16.5135 18.0906 16.3309 18.0893H3.68092C3.49729 18.0897 3.3171 18.0395 3.16011 17.9442C3.00312 17.849 2.87539 17.7123 2.79092 17.5493C2.1508 16.2507 1.87506 14.8028 1.9931 13.3599C2.11114 11.9169 2.61854 10.533 3.4612 9.35579C4.30386 8.17853 5.4502 7.252 6.778 6.67498C8.10581 6.09797 9.56531 5.89209 11.0009 6.07929C11.7273 6.16467 12.4378 6.35323 13.1109 6.63929C13.269 6.71666 13.4447 6.75093 13.6203 6.73864C13.7959 6.72635 13.9651 6.66793 14.1109 6.56929C14.2628 6.46923 14.3845 6.32965 14.463 6.16557C14.5414 6.00148 14.5736 5.81911 14.5561 5.63808C14.5387 5.45704 14.4721 5.28421 14.3637 5.13817C14.2553 4.99214 14.1091 4.87843 13.9409 4.80929C12.0091 3.98095 9.86542 3.78238 7.81433 4.24179C5.76324 4.7012 3.90906 5.79523 2.51517 7.36847C1.12129 8.94172 0.258569 10.9142 0.0495679 13.0057C-0.159433 15.0972 0.295911 17.2013 1.35092 19.0193C1.52543 19.3216 1.77601 19.5729 2.07775 19.7483C2.37949 19.9238 2.72189 20.0172 3.07092 20.0193H16.9209C17.2733 20.0207 17.6199 19.9289 17.9254 19.7533C18.231 19.5777 18.4847 19.3245 18.6609 19.0193C19.4333 17.6807 19.8849 16.1814 19.9804 14.6389C20.0758 13.0964 19.8124 11.5528 19.2109 10.1293C19.1347 9.96705 19.0163 9.82827 18.8681 9.72746C18.7199 9.62666 18.5474 9.56755 18.3685 9.5563C18.1896 9.54506 18.011 9.5821 17.8513 9.66355C17.6917 9.745 17.5568 9.86787 17.4609 10.0193Z" fill="url(#paint0_linear_19_532)"/>
<path d="M11.5861 9.66C11.2108 10.0353 11 10.5443 11 11.075C11 11.3378 11.0518 11.598 11.1523 11.8408C11.2529 12.0836 11.4003 12.3042 11.5861 12.49C11.7719 12.6758 11.9925 12.8232 12.2353 12.9238C12.4781 13.0244 12.7383 13.0761 13.0011 13.0761C13.5318 13.0761 14.0408 12.8653 14.4161 12.49L20.0761 4L11.5861 9.66Z" fill="url(#paint1_linear_19_532)"/>
<defs>
<linearGradient id="paint0_linear_19_532" x1="9.99972" y1="4" x2="9.99972" y2="20.0193" gradientUnits="userSpaceOnUse">
<stop stop-color="#D17100"/>
<stop offset="1" stop-color="#FF9900"/>
</linearGradient>
<linearGradient id="paint1_linear_19_532" x1="15.5381" y1="4" x2="15.5381" y2="13.0761" gradientUnits="userSpaceOnUse">
<stop stop-color="#D17100"/>
<stop offset="1" stop-color="#FF9900"/>
</linearGradient>
</defs>
</svg>
