<svg width="39" height="23" viewBox="0 0 39 23" fill="none" xmlns="http://www.w3.org/2000/svg">
<path d="M38.1843 3.59215C37.9639 2.89748 37.5295 2.26347 36.9242 1.75359C36.3191 1.24371 35.5645 0.875854 34.736 0.686879C31.6957 -1.54886e-07 19.5 0 19.5 0C19.5 0 7.30437 -1.54886e-07 4.26237 0.686879C3.43429 0.876191 2.6801 1.24417 2.07525 1.75401C1.4704 2.26386 1.03609 2.89771 0.81575 3.59215C0 6.15466 0 11.5 0 11.5C0 11.5 0 16.8454 0.81575 19.4079C1.03608 20.1026 1.47058 20.7366 2.07576 21.2464C2.68093 21.7563 3.43553 22.1241 4.264 22.3132C7.30437 23 19.5 23 19.5 23C19.5 23 31.6957 23 34.7377 22.3132C35.5662 22.1243 36.3208 21.7565 36.9261 21.2466C37.5313 20.7367 37.9656 20.1026 38.1859 19.4079C39 16.8454 39 11.5 39 11.5C39 11.5 39 6.15466 38.1843 3.59215ZM15.5107 16.353V6.64706L25.7043 11.5L15.5107 16.353Z" fill="white"/>
</svg>
