<svg width="32" height="24" viewBox="0 0 32 24" fill="none" xmlns="http://www.w3.org/2000/svg">
<path d="M31.3307 4.2374C31.1499 3.55643 30.7934 2.93491 30.2968 2.43508C29.8003 1.93525 29.1811 1.57465 28.5013 1.3894C26.0067 0.716064 16 0.716064 16 0.716064C16 0.716064 5.99333 0.716064 3.49733 1.3894C2.81788 1.57498 2.19906 1.93571 1.70277 2.4355C1.20648 2.9353 0.850122 3.55665 0.669333 4.2374C0 6.7494 0 11.9894 0 11.9894C0 11.9894 0 17.2294 0.669333 19.7414C0.850115 20.4224 1.20663 21.0439 1.70319 21.5437C2.19974 22.0435 2.8189 22.4041 3.49867 22.5894C5.99333 23.2627 16 23.2627 16 23.2627C16 23.2627 26.0067 23.2627 28.5027 22.5894C29.1825 22.4043 29.8017 22.0437 30.2983 21.5439C30.7949 21.044 31.1513 20.4224 31.332 19.7414C32 17.2294 32 11.9894 32 11.9894C32 11.9894 32 6.7494 31.3307 4.2374ZM12.7267 16.7467V7.2321L21.0907 11.9894L12.7267 16.7467Z" fill="url(#paint0_linear_36_1781)"/>
<defs>
<linearGradient id="paint0_linear_36_1781" x1="16" y1="0.716064" x2="16" y2="23.2627" gradientUnits="userSpaceOnUse">
<stop stop-color="#FFBB00"/>
<stop offset="1" stop-color="#F2A50C"/>
</linearGradient>
</defs>
</svg>
