<svg width="9" height="9" viewBox="0 0 9 9" fill="none" xmlns="http://www.w3.org/2000/svg">
<path d="M5.16797 5.14453H6.02344C6.02344 5.75781 5.84766 6.21875 5.49609 6.52734C5.14844 6.83203 4.67578 6.98438 4.07812 6.98438C3.66406 6.98438 3.30469 6.88867 3 6.69727C2.69922 6.50586 2.46484 6.24023 2.29688 5.90039C2.13281 5.56055 2.05078 5.16602 2.05078 4.7168V4.04297C2.05078 3.59375 2.13281 3.19922 2.29688 2.85938C2.46484 2.51953 2.69922 2.25391 3 2.0625C3.30469 1.87109 3.66406 1.77539 4.07812 1.77539C4.67578 1.77539 5.15039 1.92773 5.50195 2.23242C5.85352 2.53711 6.0293 2.99609 6.0293 3.60938H5.17383C5.17383 3.22266 5.08008 2.94531 4.89258 2.77734C4.70898 2.60938 4.4375 2.52539 4.07812 2.52539C3.82031 2.52539 3.60352 2.58984 3.42773 2.71875C3.25195 2.84766 3.11914 3.02734 3.0293 3.25781C2.93945 3.48438 2.89453 3.74414 2.89453 4.03711V4.7168C2.89453 5.01367 2.93945 5.27734 3.0293 5.50781C3.11914 5.73438 3.25195 5.91211 3.42773 6.04102C3.60352 6.16992 3.82031 6.23438 4.07812 6.23438C4.4375 6.23438 4.70898 6.15039 4.89258 5.98242C5.07617 5.81445 5.16797 5.53516 5.16797 5.14453ZM0.673828 4.37695C0.673828 4.89648 0.763672 5.38086 0.943359 5.83008C1.12305 6.2793 1.37305 6.67188 1.69336 7.00781C2.01367 7.34375 2.38477 7.60547 2.80664 7.79297C3.22852 7.98047 3.67969 8.07422 4.16016 8.07422C4.64062 8.07422 5.08984 7.98047 5.50781 7.79297C5.92969 7.60547 6.29883 7.34375 6.61523 7.00781C6.93555 6.67188 7.18555 6.2793 7.36523 5.83008C7.54492 5.38086 7.63477 4.89648 7.63477 4.37695C7.63477 3.85352 7.54492 3.36914 7.36523 2.92383C7.18555 2.47852 6.93555 2.08984 6.61523 1.75781C6.29883 1.42188 5.92969 1.16211 5.50781 0.978516C5.08984 0.791016 4.64062 0.697266 4.16016 0.697266C3.67969 0.697266 3.22852 0.791016 2.80664 0.978516C2.38477 1.16211 2.01367 1.42188 1.69336 1.75781C1.37305 2.08984 1.12305 2.47852 0.943359 2.92383C0.763672 3.36914 0.673828 3.85352 0.673828 4.37695ZM0 4.37695C0 3.75586 0.107422 3.17969 0.322266 2.64844C0.537109 2.11719 0.835938 1.6543 1.21875 1.25977C1.60156 0.861328 2.04297 0.552734 2.54297 0.333984C3.04688 0.111328 3.58594 0 4.16016 0C4.73438 0 5.27148 0.111328 5.77148 0.333984C6.27539 0.552734 6.7168 0.861328 7.0957 1.25977C7.47852 1.6543 7.77734 2.11719 7.99219 2.64844C8.20703 3.17969 8.31445 3.75586 8.31445 4.37695C8.31445 4.99805 8.20703 5.57422 7.99219 6.10547C7.77734 6.63672 7.47852 7.10352 7.0957 7.50586C6.7168 7.9043 6.27539 8.21484 5.77148 8.4375C5.27148 8.66016 4.73438 8.77148 4.16016 8.77148C3.58594 8.77148 3.04688 8.66016 2.54297 8.4375C2.04297 8.21484 1.60156 7.9043 1.21875 7.50586C0.835938 7.10352 0.537109 6.63672 0.322266 6.10547C0.107422 5.57422 0 4.99805 0 4.37695Z" fill="#7A7A7A"/>
</svg>
